<svg width="252.000000" height="64.000000" viewBox="0 0 252 64" fill="none" xmlns="http://www.w3.org/2000/svg" xmlns:xlink="http://www.w3.org/1999/xlink">
	<desc>
			Created with Pixso.
	</desc>
	<defs/>
	<path id="Back in time" d="M7.17383 26.9473L10.7422 26.9473L10.7422 14.3008L6.96875 14.3008L6.96875 12.1133L16.7852 12.1133C17.7513 12.1133 18.6126 12.1224 19.3691 12.1406C20.1348 12.1589 20.8047 12.1816 21.3789 12.209C21.9622 12.2363 22.4681 12.2728 22.8965 12.3184C23.3249 12.3639 23.694 12.4141 24.0039 12.4688C24.7513 12.6055 25.3848 12.8014 25.9043 13.0566C26.4329 13.3118 26.8613 13.6172 27.1895 13.9727C27.5176 14.3281 27.7546 14.7292 27.9004 15.1758C28.0553 15.6133 28.1328 16.0872 28.1328 16.5977C28.1328 16.9622 28.0553 17.3359 27.9004 17.7188C27.7454 18.0924 27.5039 18.4525 27.1758 18.7988C26.8568 19.1361 26.4512 19.446 25.959 19.7285C25.4759 20.0111 24.9062 20.2389 24.25 20.4121C24.9154 20.4941 25.5078 20.6582 26.0273 20.9043C26.556 21.1413 26.998 21.4375 27.3535 21.793C27.7181 22.1393 27.9915 22.5312 28.1738 22.9688C28.3652 23.4062 28.4609 23.862 28.4609 24.3359C28.4609 24.8919 28.3835 25.4069 28.2285 25.8809C28.0736 26.3457 27.8184 26.765 27.4629 27.1387C27.1165 27.5124 26.6608 27.8359 26.0957 28.1094C25.5306 28.3737 24.8379 28.5833 24.0176 28.7383C23.1335 28.9023 22.1172 29.0117 20.9688 29.0664C19.8294 29.112 18.5124 29.1348 17.0176 29.1348L7.17383 29.1348L7.17383 26.9473ZM17.0176 30.0918C18.4668 30.0918 19.7975 30.0736 21.0098 30.0371C22.2311 30.0098 23.2975 29.9049 24.209 29.7227C25.2298 29.5221 26.0775 29.235 26.752 28.8613C27.4264 28.4785 27.9596 28.0456 28.3516 27.5625C28.7526 27.0794 29.0306 26.5553 29.1855 25.9902C29.3496 25.4251 29.4316 24.8555 29.4316 24.2812C29.4316 23.8802 29.3724 23.4883 29.2539 23.1055C29.1354 22.7135 28.9531 22.349 28.707 22.0117C28.4609 21.6745 28.1465 21.3691 27.7637 21.0957C27.3809 20.8132 26.9251 20.5807 26.3965 20.3984C27.3353 19.9336 28.0234 19.3867 28.4609 18.7578C28.8984 18.1198 29.1172 17.3997 29.1172 16.5977C29.1172 15.8047 28.903 15.0527 28.4746 14.3418C28.0462 13.6217 27.3444 13.0156 26.3691 12.5234C26.916 12.6602 27.3945 12.8607 27.8047 13.125C28.2148 13.3802 28.5566 13.681 28.8301 14.0273C29.1126 14.3737 29.3223 14.7565 29.459 15.1758C29.5957 15.5951 29.6641 16.0326 29.6641 16.4883C29.6641 17.3177 29.4954 18.0423 29.1582 18.6621C28.821 19.2728 28.2786 19.8424 27.5312 20.3711C28.4062 20.8359 29.0306 21.4056 29.4043 22.0801C29.7871 22.7454 29.9785 23.4792 29.9785 24.2812C29.9785 24.9922 29.8783 25.6667 29.6777 26.3047C29.4772 26.9336 29.1491 27.5078 28.6934 28.0273C28.2467 28.5378 27.6634 28.9798 26.9434 29.3535C26.2324 29.7363 25.3574 30.028 24.3184 30.2285C23.3978 30.4108 22.3405 30.5202 21.1465 30.5566C19.9616 30.5931 18.5853 30.6113 17.0176 30.6113L8.04883 30.6113L8.04883 30.0918L17.0176 30.0918ZM18.9316 19.6328C20.0527 19.6328 20.9779 19.5781 21.707 19.4688C22.4453 19.3594 23.0332 19.1908 23.4707 18.9629C23.9082 18.7259 24.2135 18.4342 24.3867 18.0879C24.569 17.7324 24.6602 17.3086 24.6602 16.8164C24.6602 16.3242 24.5052 15.8822 24.1953 15.4902C23.8854 15.0983 23.3887 14.7975 22.7051 14.5879C22.2402 14.4512 21.7025 14.3691 21.0918 14.3418C20.4811 14.3145 19.7611 14.3008 18.9316 14.3008L13.8594 14.3008L13.8594 19.6328L18.9316 19.6328ZM14.8438 15.2578L18.9316 15.2578C19.6243 15.2578 20.2214 15.276 20.7227 15.3125C21.224 15.3398 21.6523 15.3945 22.0078 15.4766C22.3633 15.5586 22.6641 15.668 22.9102 15.8047C23.1562 15.9323 23.375 16.0964 23.5664 16.2969C23.3841 16.2148 23.1654 16.1419 22.9102 16.0781C22.6641 16.0143 22.3587 15.9596 21.9941 15.9141C21.6296 15.8685 21.1966 15.8366 20.6953 15.8184C20.2031 15.791 19.6152 15.7773 18.9316 15.7773L15.3906 15.7773L15.3906 18.8125L14.8438 18.8125L14.8438 15.2578ZM7.78906 15.2578L10.168 15.2578L10.168 15.8047L7.78906 15.8047L7.78906 15.2578ZM19.1914 26.9473C20.1302 26.9473 20.9368 26.9245 21.6113 26.8789C22.2858 26.8242 22.8691 26.7057 23.3613 26.5234C23.6712 26.4049 23.9264 26.2637 24.127 26.0996C24.3366 25.9355 24.5007 25.7578 24.6191 25.5664C24.7376 25.3659 24.8197 25.1517 24.8652 24.9238C24.9108 24.696 24.9336 24.459 24.9336 24.2129C24.9336 23.6113 24.7467 23.0918 24.373 22.6543C24.0085 22.2077 23.4388 21.8704 22.6641 21.6426C22.1901 21.5059 21.6478 21.4238 21.0371 21.3965C20.4264 21.36 19.7337 21.3418 18.959 21.3418L13.8594 21.3418L13.8594 26.9473L19.1914 26.9473ZM14.8438 22.2988L18.9316 22.2988C19.6243 22.2988 20.235 22.3216 20.7637 22.3672C21.2923 22.4128 21.748 22.4857 22.1309 22.5859C22.5228 22.6771 22.8555 22.7956 23.1289 22.9414C23.4023 23.0781 23.6348 23.2467 23.8262 23.4473C23.5892 23.3379 23.334 23.2467 23.0605 23.1738C22.7962 23.0918 22.4772 23.0234 22.1035 22.9688C21.7298 22.9141 21.2878 22.8776 20.7773 22.8594C20.2669 22.832 19.6517 22.8184 18.9316 22.8184L15.3906 22.8184L15.3906 26.127L14.8438 26.127L14.8438 22.2988ZM33.2871 22.5859C33.2871 21.7383 33.4648 20.8952 33.8203 20.0566C34.1758 19.2181 34.6999 18.4661 35.3926 17.8008C36.0944 17.1263 36.9603 16.5794 37.9902 16.1602C39.0202 15.7409 40.2051 15.5312 41.5449 15.5312C41.9733 15.5312 42.429 15.5632 42.9121 15.627C43.4043 15.6908 43.8919 15.7956 44.375 15.9414C44.8672 16.0872 45.3457 16.2832 45.8105 16.5293C46.2754 16.7663 46.6992 17.0579 47.082 17.4043L47.082 15.9414L52.9609 15.9414L52.9609 18.2656L49.9531 18.2656L49.9531 27.084L52.9609 27.084L52.9609 29.1348L47.082 29.1348L47.082 27.3574C46.7266 27.7129 46.321 28.0273 45.8652 28.3008C45.4186 28.5742 44.9401 28.8021 44.4297 28.9844C43.9284 29.1667 43.4043 29.3034 42.8574 29.3945C42.3197 29.4948 41.7819 29.5449 41.2441 29.5449C39.9316 29.5449 38.7786 29.3581 37.7852 28.9844C36.7917 28.6107 35.9622 28.1094 35.2969 27.4805C34.6315 26.8424 34.1302 26.1042 33.793 25.2656C33.4557 24.418 33.2871 23.5247 33.2871 22.5859ZM50.9375 19.2227L53.9453 19.2227L53.9453 16.9805L54.4922 16.9805L54.4922 19.7422L51.4844 19.7422L51.4844 26.2637L50.9375 26.2637L50.9375 19.2227ZM36.2539 22.4766C36.2539 23.2331 36.3861 23.9167 36.6504 24.5273C36.9238 25.138 37.293 25.6576 37.7578 26.0859C38.2227 26.5143 38.7741 26.847 39.4121 27.084C40.0501 27.321 40.7383 27.4395 41.4766 27.4395C41.9049 27.4395 42.3379 27.3984 42.7754 27.3164C43.222 27.2253 43.6504 27.0931 44.0605 26.9199C44.4798 26.7376 44.8717 26.5143 45.2363 26.25C45.61 25.9766 45.929 25.6576 46.1934 25.293C46.4668 24.9193 46.681 24.4954 46.8359 24.0215C47 23.5475 47.082 23.0189 47.082 22.4355C47.082 21.7884 46.9316 21.1777 46.6309 20.6035C46.3301 20.0202 45.9245 19.5098 45.4141 19.0723C44.9128 18.6348 44.3249 18.2884 43.6504 18.0332C42.9759 17.778 42.265 17.6504 41.5176 17.6504C40.7702 17.6504 40.0729 17.7643 39.4258 17.9922C38.7878 18.2201 38.2318 18.5436 37.7578 18.9629C37.293 19.3822 36.9238 19.8926 36.6504 20.4941C36.3861 21.0866 36.2539 21.7474 36.2539 22.4766ZM37.1973 22.5449C37.1973 21.9707 37.3021 21.4466 37.5117 20.9727C37.7305 20.4896 38.0312 20.0749 38.4141 19.7285C38.7969 19.373 39.2526 19.0996 39.7812 18.9082C40.3099 18.7077 40.8887 18.6074 41.5176 18.6074C41.9915 18.6074 42.4199 18.6621 42.8027 18.7715C43.1855 18.8717 43.5182 18.9993 43.8008 19.1543C44.0833 19.3001 44.3158 19.4551 44.498 19.6191C44.6803 19.7741 44.8079 19.9108 44.8809 20.0293C44.3887 19.7559 43.8828 19.5371 43.3633 19.373C42.8438 19.209 42.2285 19.127 41.5176 19.127C40.9434 19.127 40.4238 19.2227 39.959 19.4141C39.5033 19.5964 39.1113 19.847 38.7832 20.166C38.4551 20.485 38.1999 20.8542 38.0176 21.2734C37.8444 21.6927 37.7578 22.1348 37.7578 22.5996C37.7578 23.0371 37.8079 23.4473 37.9082 23.8301C38.0085 24.2129 38.168 24.5684 38.3867 24.8965C38.6146 25.2155 38.9062 25.5117 39.2617 25.7852C39.6263 26.0495 40.0638 26.2819 40.5742 26.4824C40 26.3822 39.4987 26.2135 39.0703 25.9766C38.651 25.7305 38.3001 25.4342 38.0176 25.0879C37.7441 24.7415 37.5391 24.3542 37.4023 23.9258C37.2656 23.4883 37.1973 23.028 37.1973 22.5449ZM53.9453 30.0918L53.9453 27.8496L54.4922 27.8496L54.4922 30.6113L47.9023 30.6113L47.9023 30.0918L53.9453 30.0918ZM35.0508 28.5469C35.4245 28.8477 35.8483 29.1165 36.3223 29.3535C36.7962 29.5996 37.3021 29.8047 37.8398 29.9688C38.3776 30.1419 38.9336 30.2741 39.5078 30.3652C40.0911 30.4564 40.6745 30.502 41.2578 30.502C42.2695 30.502 43.2129 30.3743 44.0879 30.1191C44.972 29.873 45.7559 29.5267 46.4395 29.0801L46.4395 29.709C45.7559 30.1191 44.9629 30.4382 44.0605 30.666C43.1673 30.903 42.2376 31.0215 41.2715 31.0215C40.6061 31.0215 39.9544 30.9668 39.3164 30.8574C38.6784 30.7572 38.0859 30.6022 37.5391 30.3926C36.9922 30.1829 36.5046 29.9232 36.0762 29.6133C35.6478 29.3034 35.306 28.9479 35.0508 28.5469ZM57.7871 22.791C57.7871 21.8249 57.9922 20.9043 58.4023 20.0293C58.8216 19.1543 59.4049 18.3841 60.1523 17.7188C60.9089 17.0534 61.8158 16.5247 62.873 16.1328C63.9395 15.7318 65.1152 15.5312 66.4004 15.5312C67.4759 15.5312 68.4466 15.6771 69.3125 15.9688C70.1875 16.2513 70.9941 16.6523 71.7324 17.1719L71.7324 15.9551L74.6719 15.9551L74.6719 20.1934L71.8691 20.1934C71.6139 19.8743 71.2995 19.5645 70.9258 19.2637C70.5521 18.9538 70.1283 18.6803 69.6543 18.4434C69.1895 18.2064 68.679 18.015 68.123 17.8691C67.5671 17.7233 66.9792 17.6504 66.3594 17.6504C65.5664 17.6504 64.8281 17.778 64.1445 18.0332C63.4609 18.2884 62.8685 18.6439 62.3672 19.0996C61.8659 19.5553 61.4694 20.0931 61.1777 20.7129C60.8952 21.3327 60.7539 22.0072 60.7539 22.7363C60.7539 23.4928 60.9043 24.1628 61.2051 24.7461C61.515 25.3294 61.9388 25.8216 62.4766 26.2227C63.0143 26.6146 63.6523 26.9154 64.3906 27.125C65.1289 27.3255 65.931 27.4258 66.7969 27.4258C68.2005 27.4258 69.4401 27.2025 70.5156 26.7559C71.6003 26.3092 72.5664 25.6211 73.4141 24.6914L74.8633 26.3457C73.8698 27.4121 72.7168 28.2142 71.4043 28.752C70.0918 29.2806 68.5788 29.5449 66.8652 29.5449C65.4251 29.5449 64.14 29.3854 63.0098 29.0664C61.8887 28.7383 60.9408 28.278 60.166 27.6855C59.3913 27.0931 58.7988 26.3822 58.3887 25.5527C57.9876 24.7233 57.7871 23.8027 57.7871 22.791ZM72.5391 21.1504L75.6562 21.1504L75.6562 16.5293L76.2031 16.5293L76.2031 21.6699L72.5391 21.6699L72.5391 21.1504ZM61.7383 22.7363C61.7383 22.1257 61.8568 21.5697 62.0938 21.0684C62.3307 20.5579 62.6543 20.1204 63.0645 19.7559C63.4837 19.3913 63.9759 19.1087 64.541 18.9082C65.1061 18.7077 65.7168 18.6074 66.373 18.6074C66.765 18.6074 67.1615 18.6439 67.5625 18.7168C67.9635 18.7897 68.3418 18.8945 68.6973 19.0312C69.0527 19.1589 69.3717 19.3138 69.6543 19.4961C69.9369 19.6784 70.1602 19.8789 70.3242 20.0977C69.7773 19.806 69.1895 19.5736 68.5605 19.4004C67.9408 19.2181 67.2298 19.127 66.4277 19.127C65.7897 19.127 65.2155 19.2272 64.7051 19.4277C64.1947 19.6191 63.7572 19.8789 63.3926 20.207C63.0371 20.5352 62.7637 20.918 62.5723 21.3555C62.3809 21.793 62.2852 22.2533 62.2852 22.7363C62.2852 23.2194 62.3581 23.6478 62.5039 24.0215C62.6589 24.3861 62.8776 24.7188 63.1602 25.0195C63.4427 25.3112 63.7891 25.571 64.1992 25.7988C64.6094 26.0176 65.0742 26.2181 65.5938 26.4004C64.9922 26.3457 64.4499 26.2181 63.9668 26.0176C63.4928 25.8171 63.0918 25.5618 62.7637 25.252C62.4355 24.9329 62.1803 24.5638 61.998 24.1445C61.8249 23.7161 61.7383 23.2467 61.7383 22.7363ZM59.7422 28.5059C60.1797 28.8249 60.6673 29.1074 61.2051 29.3535C61.7428 29.6087 62.3171 29.8184 62.9277 29.9824C63.5475 30.1556 64.1901 30.2878 64.8555 30.3789C65.5208 30.4701 66.1953 30.5156 66.8789 30.5156C67.6992 30.5156 68.5013 30.4473 69.2852 30.3105C70.0781 30.1829 70.821 29.9961 71.5137 29.75C72.2064 29.5039 72.8398 29.2077 73.4141 28.8613C73.9883 28.5059 74.4759 28.1094 74.877 27.6719L75.2734 28.0273C74.28 29.0391 73.0723 29.791 71.6504 30.2832C70.2376 30.7845 68.638 31.0352 66.8516 31.0352C66.1133 31.0352 65.3796 30.9805 64.6504 30.8711C63.9212 30.7617 63.2376 30.5977 62.5996 30.3789C61.9616 30.1693 61.3919 29.9049 60.8906 29.5859C60.3984 29.276 60.0156 28.916 59.7422 28.5059ZM79.7578 27.084L82.7656 27.084L82.7656 12.1133L79.7578 12.1133L79.7578 10.0625L85.7051 10.0625L85.7051 22.668L92.7188 18.2656L90.5039 18.2656L90.5039 15.9414L99.4727 15.9414L99.4727 18.2656L96.0684 18.2656L90.9961 21.3828L96.8203 27.084L99.7871 27.084L99.7871 29.1348L91.2969 29.1348L91.2969 27.084L93.0879 27.084L88.6992 22.791L85.7051 24.6367L85.7051 27.084L88.0293 27.084L88.0293 29.1348L79.7578 29.1348L79.7578 27.084ZM86.6621 10.7598L87.209 10.7598L87.209 20.877L86.6621 21.2051L86.6621 10.7598ZM80.5781 13.0703L82.1914 13.0703L82.1914 13.5898L80.5781 13.5898L80.5781 13.0703ZM96.793 19.0996L100.457 19.0996L100.457 16.707L101.004 16.707L101.004 19.6191L96.9023 19.6191L93.416 21.6426L98.1328 26.2637L97.3672 26.2637L92.541 21.5469L96.793 19.0996ZM86.6621 25.1836L89.082 23.6797L89.4512 24.0488L87.1816 25.457L87.1816 26.2637L86.6621 26.2637L86.6621 25.1836ZM100.771 30.0918L100.771 27.8496L101.318 27.8496L101.318 30.6113L92.1172 30.6113L92.1172 30.0918L100.771 30.0918ZM89.0137 30.0918L89.0137 27.8496L89.5605 27.8496L89.5605 30.6113L80.5781 30.6113L80.5781 30.0918L89.0137 30.0918ZM116.029 9.80273L119.379 9.80273L119.379 12.5371L116.029 12.5371L116.029 9.80273ZM116.85 13.4941L120.363 13.4941L120.363 10.5684L120.91 10.5684L120.91 14.0137L116.85 14.0137L116.85 13.4941ZM113.158 27.084L116.85 27.084L116.439 18.2656L113.158 18.2656L113.158 15.9414L119.379 15.9414L119.379 27.084L122.523 27.084L122.523 29.1348L113.158 29.1348L113.158 27.084ZM120.336 16.6387L120.883 16.6387L120.883 26.2637L120.336 26.2637L120.336 16.6387ZM113.979 19.2227L115.865 19.2227L115.865 19.7422L113.979 19.7422L113.979 19.2227ZM123.508 30.0918L123.508 27.8496L124.055 27.8496L124.055 30.6113L113.979 30.6113L113.979 30.0918L123.508 30.0918ZM126.557 27.084L129.564 27.084L129.564 18.2656L126.557 18.2656L126.557 15.9414L132.504 15.9414L132.504 18.0059C132.786 17.6595 133.124 17.3359 133.516 17.0352C133.917 16.7344 134.363 16.4746 134.855 16.2559C135.348 16.028 135.881 15.8503 136.455 15.7227C137.029 15.5951 137.631 15.5312 138.26 15.5312C139.208 15.5312 140.069 15.668 140.844 15.9414C141.618 16.2057 142.279 16.6204 142.826 17.1855C143.373 17.7415 143.792 18.4479 144.084 19.3047C144.385 20.1523 144.535 21.1595 144.535 22.3262L144.535 27.084L147.543 27.084L147.543 29.1348L139.271 29.1348L139.271 27.084L141.596 27.084L141.596 23.4883C141.596 22.75 141.559 22.0938 141.486 21.5195C141.423 20.9362 141.327 20.4805 141.199 20.1523C141.035 19.7331 140.826 19.3776 140.57 19.0859C140.324 18.7943 140.042 18.5573 139.723 18.375C139.413 18.1927 139.071 18.0605 138.697 17.9785C138.324 17.8965 137.927 17.8555 137.508 17.8555C137.061 17.8555 136.596 17.9375 136.113 18.1016C135.639 18.2656 135.174 18.498 134.719 18.7988C134.272 19.0905 133.853 19.4368 133.461 19.8379C133.078 20.2389 132.759 20.6719 132.504 21.1367L132.504 27.084L134.828 27.084L134.828 29.1348L126.557 29.1348L126.557 27.084ZM145.52 22.4219C145.52 21.6198 145.456 20.877 145.328 20.1934C145.21 19.5007 145.027 18.8809 144.781 18.334C144.535 17.778 144.23 17.2995 143.865 16.8984C143.51 16.4974 143.095 16.1784 142.621 15.9414C143.241 16.0964 143.77 16.3607 144.207 16.7344C144.645 17.099 145 17.5638 145.273 18.1289C145.547 18.694 145.747 19.3457 145.875 20.084C146.003 20.8223 146.066 21.6335 146.066 22.5176L146.066 26.2637L145.52 26.2637L145.52 22.4219ZM133.488 21.4785C133.716 21.0775 133.985 20.7129 134.295 20.3848C134.614 20.0566 134.956 19.7786 135.32 19.5508C135.694 19.3138 136.081 19.1315 136.482 19.0039C136.893 18.8763 137.298 18.8125 137.699 18.8125C138.328 18.8125 138.839 18.931 139.23 19.168C139.622 19.4049 139.91 19.7057 140.092 20.0703C139.809 19.8607 139.477 19.6829 139.094 19.5371C138.72 19.3913 138.246 19.3184 137.672 19.3184C137.316 19.3184 136.956 19.3867 136.592 19.5234C136.227 19.651 135.881 19.8242 135.553 20.043C135.225 20.2617 134.928 20.5124 134.664 20.7949C134.4 21.0775 134.19 21.3646 134.035 21.6562L134.035 26.2637L133.488 26.2637L133.488 21.4785ZM127.377 19.2227L128.99 19.2227L128.99 19.7422L127.377 19.7422L127.377 19.2227ZM148.527 30.0918L148.527 27.8496L149.074 27.8496L149.074 30.6113L140.092 30.6113L140.092 30.0918L148.527 30.0918ZM135.812 30.0918L135.812 27.8496L136.359 27.8496L136.359 30.6113L127.377 30.6113L127.377 30.0918L135.812 30.0918ZM162.568 18.2656L159.561 18.2656L159.561 15.9414L162.568 15.9414L162.568 13.1797L165.508 11.9492L165.508 15.9414L172.303 15.9414L172.303 18.2656L165.508 18.2656L165.508 24.7871C165.508 25.4707 165.722 25.9811 166.15 26.3184C166.579 26.6465 167.162 26.8105 167.9 26.8105L171.756 26.8105L171.756 29.1348L167.9 29.1348C167.162 29.1348 166.469 29.0573 165.822 28.9023C165.175 28.7383 164.61 28.4694 164.127 28.0957C163.644 27.7129 163.261 27.2116 162.979 26.5918C162.705 25.9629 162.568 25.179 162.568 24.2402L162.568 18.2656ZM166.492 12.7012L167.039 12.4551L167.039 15.1211L166.492 15.1211L166.492 12.7012ZM166.465 19.0723L173.287 19.0723L173.287 16.5566L173.834 16.5566L173.834 19.5918L167.012 19.5918L167.012 25.8945C166.702 25.8125 166.52 25.6302 166.465 25.3477L166.465 19.0723ZM160.381 19.2227L162.021 19.2227L162.021 19.7422L160.381 19.7422L160.381 19.2227ZM162.486 27.959C162.778 28.3691 163.102 28.7109 163.457 28.9844C163.822 29.2578 164.227 29.4766 164.674 29.6406C165.12 29.8047 165.608 29.9186 166.137 29.9824C166.665 30.0553 167.244 30.0918 167.873 30.0918L172.74 30.0918L172.74 27.4258L173.287 27.4258L173.287 30.6113L167.805 30.6113C167.103 30.6113 166.465 30.5658 165.891 30.4746C165.316 30.3835 164.806 30.2331 164.359 30.0234C163.922 29.8229 163.544 29.5495 163.225 29.2031C162.915 28.8659 162.669 28.4512 162.486 27.959ZM179.768 9.80273L183.117 9.80273L183.117 12.5371L179.768 12.5371L179.768 9.80273ZM180.588 13.4941L184.102 13.4941L184.102 10.5684L184.648 10.5684L184.648 14.0137L180.588 14.0137L180.588 13.4941ZM176.896 27.084L180.588 27.084L180.178 18.2656L176.896 18.2656L176.896 15.9414L183.117 15.9414L183.117 27.084L186.262 27.084L186.262 29.1348L176.896 29.1348L176.896 27.084ZM184.074 16.6387L184.621 16.6387L184.621 26.2637L184.074 26.2637L184.074 16.6387ZM177.717 19.2227L179.604 19.2227L179.604 19.7422L177.717 19.7422L177.717 19.2227ZM187.246 30.0918L187.246 27.8496L187.793 27.8496L187.793 30.6113L177.717 30.6113L177.717 30.0918L187.246 30.0918ZM190.295 27.084L193.303 27.084L193.303 18.2656L190.295 18.2656L190.295 15.9414L196.242 15.9414L196.242 17.9922C196.516 17.6458 196.844 17.3223 197.227 17.0215C197.609 16.7207 198.038 16.4609 198.512 16.2422C198.995 16.0234 199.514 15.8503 200.07 15.7227C200.635 15.5951 201.232 15.5312 201.861 15.5312C203.146 15.5312 204.245 15.7819 205.156 16.2832C206.077 16.7845 206.788 17.5592 207.289 18.6074C207.626 18.1608 208.018 17.7507 208.465 17.377C208.921 16.9941 209.417 16.666 209.955 16.3926C210.493 16.1191 211.067 15.9095 211.678 15.7637C212.298 15.6087 212.945 15.5312 213.619 15.5312C214.558 15.5312 215.406 15.668 216.162 15.9414C216.919 16.2148 217.561 16.6341 218.09 17.1992C218.628 17.7552 219.038 18.4616 219.32 19.3184C219.612 20.166 219.758 21.1686 219.758 22.3262L219.758 27.084L222.766 27.084L222.766 29.1348L214.494 29.1348L214.494 27.084L216.818 27.084L216.818 23.5566C216.818 22.6999 216.782 21.9525 216.709 21.3145C216.636 20.6764 216.513 20.1842 216.34 19.8379C215.993 19.1178 215.524 18.6074 214.932 18.3066C214.348 18.0059 213.66 17.8555 212.867 17.8555C212.411 17.8555 211.947 17.9421 211.473 18.1152C210.999 18.2793 210.543 18.5117 210.105 18.8125C209.668 19.1133 209.262 19.4688 208.889 19.8789C208.515 20.2891 208.201 20.7311 207.945 21.2051C207.964 21.3874 207.977 21.5742 207.986 21.7656C207.995 21.9479 208 22.1348 208 22.3262L208 27.084L210.324 27.084L210.324 29.1348L202.736 29.1348L202.736 27.084L205.061 27.084L205.061 23.4883C205.061 22.75 205.024 22.0938 204.951 21.5195C204.887 20.9362 204.792 20.4805 204.664 20.1523C204.345 19.3229 203.88 18.735 203.27 18.3887C202.659 18.0332 201.939 17.8555 201.109 17.8555C200.654 17.8555 200.193 17.9375 199.729 18.1016C199.264 18.2656 198.812 18.4935 198.375 18.7852C197.947 19.0768 197.546 19.4232 197.172 19.8242C196.807 20.2253 196.497 20.6582 196.242 21.123L196.242 27.084L198.566 27.084L198.566 29.1348L190.295 29.1348L190.295 27.084ZM217.844 15.9414C218.464 16.0964 218.992 16.3607 219.43 16.7344C219.867 17.099 220.223 17.5638 220.496 18.1289C220.77 18.694 220.97 19.3457 221.098 20.084C221.225 20.8223 221.289 21.6335 221.289 22.5176L221.289 26.2637L220.742 26.2637L220.742 22.4219C220.742 21.6198 220.678 20.877 220.551 20.1934C220.432 19.5007 220.25 18.8809 220.004 18.334C219.758 17.778 219.452 17.2995 219.088 16.8984C218.732 16.4974 218.318 16.1784 217.844 15.9414ZM206.086 15.9414C206.523 15.9961 206.906 16.1191 207.234 16.3105C207.572 16.502 207.831 16.7116 208.014 16.9395L207.617 17.3086C207.562 17.1992 207.476 17.0762 207.357 16.9395C207.248 16.8027 207.12 16.6706 206.975 16.543C206.838 16.4062 206.688 16.2878 206.523 16.1875C206.368 16.0781 206.223 15.9961 206.086 15.9414ZM208.984 21.4785C209.212 21.0775 209.477 20.7129 209.777 20.3848C210.078 20.0566 210.402 19.7786 210.748 19.5508C211.094 19.3138 211.459 19.1315 211.842 19.0039C212.225 18.8763 212.617 18.8125 213.018 18.8125C213.646 18.8125 214.161 18.931 214.562 19.168C214.973 19.4049 215.269 19.7057 215.451 20.0703C215.169 19.8607 214.831 19.6875 214.439 19.5508C214.048 19.4049 213.564 19.332 212.99 19.332C212.635 19.332 212.279 19.3958 211.924 19.5234C211.577 19.6419 211.249 19.806 210.939 20.0156C210.639 20.2253 210.365 20.4668 210.119 20.7402C209.873 21.0137 209.677 21.2962 209.531 21.5879L209.531 26.2637L208.984 26.2637L208.984 21.4785ZM197.227 21.4785C197.454 21.0775 197.719 20.7129 198.02 20.3848C198.32 20.0566 198.644 19.7786 198.99 19.5508C199.337 19.3138 199.701 19.1315 200.084 19.0039C200.467 18.8763 200.859 18.8125 201.26 18.8125C201.889 18.8125 202.404 18.931 202.805 19.168C203.215 19.4049 203.511 19.7057 203.693 20.0703C203.411 19.8607 203.074 19.6875 202.682 19.5508C202.29 19.4049 201.807 19.332 201.232 19.332C200.877 19.332 200.521 19.3958 200.166 19.5234C199.82 19.6419 199.492 19.806 199.182 20.0156C198.881 20.2253 198.607 20.4668 198.361 20.7402C198.115 21.0137 197.919 21.2962 197.773 21.5879L197.773 26.2637L197.227 26.2637L197.227 21.4785ZM191.115 19.2227L192.729 19.2227L192.729 19.7422L191.115 19.7422L191.115 19.2227ZM223.75 30.0918L223.75 27.8496L224.297 27.8496L224.297 30.6113L215.314 30.6113L215.314 30.0918L223.75 30.0918ZM211.309 30.0918L211.309 27.8496L211.855 27.8496L211.855 30.6113L203.557 30.6113L203.557 30.0918L211.309 30.0918ZM199.551 30.0918L199.551 27.8496L200.098 27.8496L200.098 30.6113L191.115 30.6113L191.115 30.0918L199.551 30.0918ZM226.389 22.791C226.389 21.8249 226.566 20.9043 226.922 20.0293C227.277 19.1543 227.811 18.3841 228.521 17.7188C229.232 17.0534 230.117 16.5247 231.174 16.1328C232.231 15.7318 233.457 15.5312 234.852 15.5312C236.164 15.5312 237.335 15.709 238.365 16.0645C239.395 16.4108 240.27 16.9167 240.99 17.582C241.71 18.2474 242.257 19.0632 242.631 20.0293C243.014 20.9863 243.205 22.0801 243.205 23.3105L229.383 23.3105C229.465 23.9668 229.674 24.5501 230.012 25.0605C230.358 25.571 230.796 26.0039 231.324 26.3594C231.853 26.7057 232.45 26.9701 233.115 27.1523C233.79 27.3346 234.492 27.4258 235.221 27.4258C235.813 27.4258 236.415 27.3802 237.025 27.2891C237.645 27.1888 238.229 27.0566 238.775 26.8926C239.322 26.7285 239.81 26.5462 240.238 26.3457C240.667 26.1361 240.995 25.9219 241.223 25.7031L241.742 25.7031L243.027 27.0977C242.089 27.8997 240.945 28.5104 239.596 28.9297C238.256 29.3398 236.775 29.5449 235.152 29.5449C233.74 29.5449 232.486 29.3717 231.393 29.0254C230.308 28.679 229.392 28.2005 228.645 27.5898C227.906 26.9792 227.346 26.2637 226.963 25.4434C226.58 24.623 226.389 23.7389 226.389 22.791ZM244.135 24.2676C244.153 24.1309 244.167 23.985 244.176 23.8301C244.185 23.666 244.189 23.4928 244.189 23.3105C244.189 22.5358 244.107 21.7975 243.943 21.0957C243.788 20.3848 243.556 19.7285 243.246 19.127C242.945 18.5163 242.572 17.9603 242.125 17.459C241.678 16.9577 241.173 16.5293 240.607 16.1738C241.209 16.4108 241.76 16.7389 242.262 17.1582C242.772 17.5684 243.21 18.0697 243.574 18.6621C243.939 19.2546 244.221 19.9382 244.422 20.7129C244.632 21.4876 244.736 22.3535 244.736 23.3105C244.736 23.3835 244.732 23.4746 244.723 23.584C244.723 23.6934 244.718 23.8164 244.709 23.9531C244.7 24.0898 244.686 24.2311 244.668 24.377C244.659 24.5137 244.645 24.6504 244.627 24.7871L231.707 24.7871C231.88 25.0788 232.199 25.3796 232.664 25.6895C233.129 25.9902 233.73 26.2454 234.469 26.4551C234.013 26.4551 233.585 26.4004 233.184 26.291C232.792 26.1816 232.432 26.0312 232.104 25.8398C231.785 25.6484 231.502 25.4206 231.256 25.1562C231.019 24.8828 230.832 24.5866 230.695 24.2676L244.135 24.2676ZM240.047 21.6016C239.901 20.9727 239.673 20.4121 239.363 19.9199C239.062 19.4277 238.689 19.0176 238.242 18.6895C237.796 18.3522 237.285 18.097 236.711 17.9238C236.137 17.7415 235.508 17.6504 234.824 17.6504C234.086 17.6504 233.411 17.7507 232.801 17.9512C232.199 18.1426 231.671 18.416 231.215 18.7715C230.759 19.1178 230.381 19.5326 230.08 20.0156C229.788 20.4987 229.583 21.0273 229.465 21.6016L240.047 21.6016ZM230.709 21.0137C231.046 20.2663 231.575 19.6784 232.295 19.25C233.024 18.8216 233.867 18.6074 234.824 18.6074C235.216 18.6074 235.594 18.6393 235.959 18.7031C236.333 18.7669 236.674 18.8672 236.984 19.0039C237.303 19.1315 237.581 19.291 237.818 19.4824C238.055 19.6738 238.242 19.8926 238.379 20.1387C237.859 19.7923 237.303 19.5371 236.711 19.373C236.118 19.209 235.48 19.127 234.797 19.127C234.004 19.127 233.307 19.291 232.705 19.6191C232.104 19.9473 231.648 20.4121 231.338 21.0137L230.709 21.0137ZM228.043 28.5332C228.927 29.1621 229.952 29.6497 231.119 29.9961C232.295 30.3424 233.639 30.5156 235.152 30.5156C236.629 30.5156 238.01 30.347 239.295 30.0098C240.589 29.6725 241.756 29.1576 242.795 28.4648L243.164 28.8613C241.988 29.6543 240.749 30.2148 239.445 30.543C238.151 30.8711 236.793 31.0352 235.371 31.0352C233.521 31.0352 231.985 30.8118 230.764 30.3652C229.551 29.9186 228.645 29.3079 228.043 28.5332Z" fill="#2F2F2F" fill-opacity="1.000000" fill-rule="evenodd"/>
	<path id="Line 1" d="M12.496 40L239.504 40" stroke="#000000" stroke-opacity="1.000000" stroke-width="1.000000"/>
	<path id="Vintage" d="M95.836 57.823C95.608 57.823 95.446 57.709 95.35 57.481L89.95 44.647C89.83 44.371 89.824 44.155 89.932 43.999C90.052 43.843 90.214 43.765 90.418 43.765C90.646 43.765 90.82 43.891 90.94 44.143L96.124 56.545L95.602 56.545L100.714 44.215C100.774 44.047 100.852 43.933 100.948 43.873C101.044 43.801 101.164 43.765 101.308 43.765C101.524 43.765 101.668 43.855 101.74 44.035C101.812 44.215 101.8 44.419 101.704 44.647L96.322 57.481C96.262 57.613 96.184 57.703 96.088 57.751C96.004 57.799 95.92 57.823 95.836 57.823ZM104.659 57.823C104.503 57.823 104.371 57.775 104.263 57.679C104.167 57.571 104.119 57.439 104.119 57.283L104.119 48.517C104.119 48.349 104.167 48.217 104.263 48.121C104.371 48.025 104.503 47.977 104.659 47.977C104.827 47.977 104.959 48.025 105.055 48.121C105.151 48.217 105.199 48.349 105.199 48.517L105.199 57.283C105.199 57.439 105.151 57.571 105.055 57.679C104.959 57.775 104.827 57.823 104.659 57.823ZM104.641 45.907C104.413 45.907 104.215 45.829 104.047 45.673C103.891 45.505 103.813 45.301 103.813 45.061C103.813 44.785 103.897 44.581 104.065 44.449C104.245 44.305 104.443 44.233 104.659 44.233C104.863 44.233 105.049 44.305 105.217 44.449C105.397 44.581 105.487 44.785 105.487 45.061C105.487 45.301 105.403 45.505 105.235 45.673C105.079 45.829 104.881 45.907 104.641 45.907ZM117.318 57.823C117.162 57.823 117.03 57.775 116.922 57.679C116.826 57.571 116.778 57.439 116.778 57.283L116.778 52.441C116.778 51.649 116.622 50.995 116.31 50.479C116.01 49.963 115.596 49.579 115.068 49.327C114.552 49.063 113.964 48.931 113.304 48.931C112.656 48.931 112.074 49.057 111.558 49.309C111.042 49.549 110.634 49.885 110.334 50.317C110.034 50.749 109.884 51.235 109.884 51.775L108.984 51.775C109.032 51.031 109.254 50.365 109.65 49.777C110.046 49.177 110.562 48.709 111.198 48.373C111.834 48.025 112.536 47.851 113.304 47.851C114.168 47.851 114.942 48.031 115.626 48.391C116.322 48.739 116.868 49.255 117.264 49.939C117.66 50.611 117.858 51.445 117.858 52.441L117.858 57.283C117.858 57.439 117.804 57.571 117.696 57.679C117.6 57.775 117.474 57.823 117.318 57.823ZM109.344 57.823C109.188 57.823 109.056 57.775 108.948 57.679C108.852 57.571 108.804 57.439 108.804 57.283L108.804 48.517C108.804 48.349 108.852 48.217 108.948 48.121C109.056 48.025 109.188 47.977 109.344 47.977C109.512 47.977 109.644 48.025 109.74 48.121C109.836 48.217 109.884 48.349 109.884 48.517L109.884 57.283C109.884 57.439 109.836 57.571 109.74 57.679C109.644 57.775 109.512 57.823 109.344 57.823ZM124.947 57.823C124.287 57.811 123.699 57.661 123.183 57.373C122.667 57.073 122.265 56.665 121.977 56.149C121.689 55.621 121.545 55.027 121.545 54.367L121.545 45.403C121.545 45.235 121.593 45.103 121.689 45.007C121.797 44.899 121.929 44.845 122.085 44.845C122.253 44.845 122.385 44.899 122.481 45.007C122.589 45.103 122.643 45.235 122.643 45.403L122.643 54.367C122.643 55.063 122.859 55.633 123.291 56.077C123.723 56.509 124.281 56.725 124.965 56.725L125.361 56.725C125.529 56.725 125.661 56.779 125.757 56.887C125.865 56.983 125.919 57.115 125.919 57.283C125.919 57.439 125.865 57.571 125.757 57.679C125.661 57.775 125.529 57.823 125.361 57.823L124.947 57.823ZM120.141 49.309C119.997 49.309 119.877 49.267 119.781 49.183C119.697 49.087 119.655 48.967 119.655 48.823C119.655 48.679 119.697 48.565 119.781 48.481C119.877 48.385 119.997 48.337 120.141 48.337L125.019 48.337C125.163 48.337 125.277 48.385 125.361 48.481C125.457 48.565 125.505 48.679 125.505 48.823C125.505 48.967 125.457 49.087 125.361 49.183C125.277 49.267 125.163 49.309 125.019 49.309L120.141 49.309ZM132.675 57.931C131.715 57.931 130.851 57.715 130.083 57.283C129.327 56.839 128.727 56.239 128.283 55.483C127.851 54.715 127.635 53.857 127.635 52.909C127.635 51.949 127.851 51.091 128.283 50.335C128.727 49.567 129.327 48.967 130.083 48.535C130.851 48.091 131.715 47.869 132.675 47.869C133.635 47.869 134.493 48.091 135.249 48.535C136.005 48.967 136.599 49.567 137.031 50.335C137.475 51.091 137.697 51.949 137.697 52.909L137.247 53.629C137.247 54.445 137.043 55.177 136.635 55.825C136.239 56.473 135.699 56.989 135.015 57.373C134.331 57.745 133.551 57.931 132.675 57.931ZM132.675 56.923C133.431 56.923 134.103 56.749 134.691 56.401C135.291 56.041 135.759 55.561 136.095 54.961C136.443 54.349 136.617 53.665 136.617 52.909C136.617 52.141 136.443 51.457 136.095 50.857C135.759 50.245 135.291 49.765 134.691 49.417C134.103 49.057 133.431 48.877 132.675 48.877C131.931 48.877 131.259 49.057 130.659 49.417C130.059 49.765 129.585 50.245 129.237 50.857C128.889 51.457 128.715 52.141 128.715 52.909C128.715 53.665 128.889 54.349 129.237 54.961C129.585 55.561 130.059 56.041 130.659 56.401C131.259 56.749 131.931 56.923 132.675 56.923ZM137.157 57.823C137.001 57.823 136.869 57.775 136.761 57.679C136.665 57.571 136.617 57.439 136.617 57.283L136.617 53.989L136.959 52.909L137.697 52.909L137.697 57.283C137.697 57.439 137.649 57.571 137.553 57.679C137.457 57.775 137.325 57.823 137.157 57.823ZM144.891 57.931C143.907 57.931 143.037 57.715 142.281 57.283C141.525 56.851 140.931 56.257 140.499 55.501C140.067 54.745 139.851 53.881 139.851 52.909C139.851 51.925 140.073 51.055 140.517 50.299C140.961 49.543 141.561 48.949 142.317 48.517C143.085 48.085 143.943 47.869 144.891 47.869C145.875 47.869 146.739 48.085 147.483 48.517C148.239 48.949 148.833 49.543 149.265 50.299C149.697 51.055 149.913 51.925 149.913 52.909L149.283 53.629C149.283 54.469 149.097 55.213 148.725 55.861C148.353 56.509 147.837 57.019 147.177 57.391C146.517 57.751 145.755 57.931 144.891 57.931ZM144.963 61.585C143.967 61.585 143.115 61.399 142.407 61.027C141.711 60.655 141.135 60.181 140.679 59.605C140.583 59.485 140.535 59.359 140.535 59.227C140.535 59.095 140.595 58.987 140.715 58.903C140.835 58.807 140.973 58.771 141.129 58.795C141.297 58.819 141.423 58.897 141.507 59.029C141.879 59.473 142.353 59.839 142.929 60.127C143.505 60.427 144.183 60.577 144.963 60.577C145.707 60.577 146.367 60.397 146.943 60.037C147.531 59.677 147.993 59.179 148.329 58.543C148.665 57.919 148.833 57.217 148.833 56.437L148.833 53.575L149.319 52.909L149.913 52.909L149.913 56.437C149.913 57.409 149.697 58.285 149.265 59.065C148.833 59.845 148.245 60.457 147.501 60.901C146.757 61.357 145.911 61.585 144.963 61.585ZM144.891 56.923C145.659 56.923 146.337 56.755 146.925 56.419C147.525 56.071 147.993 55.597 148.329 54.997C148.665 54.385 148.833 53.689 148.833 52.909C148.833 52.117 148.665 51.421 148.329 50.821C147.993 50.209 147.525 49.735 146.925 49.399C146.337 49.051 145.659 48.877 144.891 48.877C144.123 48.877 143.439 49.051 142.839 49.399C142.239 49.735 141.771 50.209 141.435 50.821C141.099 51.421 140.931 52.117 140.931 52.909C140.931 53.689 141.099 54.385 141.435 54.997C141.771 55.597 142.239 56.071 142.839 56.419C143.439 56.755 144.123 56.923 144.891 56.923ZM156.964 57.913C156.016 57.913 155.17 57.703 154.426 57.283C153.694 56.851 153.118 56.257 152.698 55.501C152.278 54.745 152.068 53.881 152.068 52.909C152.068 51.925 152.266 51.061 152.662 50.317C153.058 49.561 153.604 48.967 154.3 48.535C154.996 48.103 155.794 47.887 156.694 47.887C157.582 47.887 158.368 48.097 159.052 48.517C159.736 48.925 160.27 49.495 160.654 50.227C161.038 50.947 161.23 51.781 161.23 52.729C161.23 52.885 161.182 53.011 161.086 53.107C160.99 53.191 160.864 53.233 160.708 53.233L152.788 53.233L152.788 52.297L160.996 52.297L160.204 52.891C160.228 52.111 160.096 51.421 159.808 50.821C159.52 50.221 159.106 49.753 158.566 49.417C158.038 49.069 157.414 48.895 156.694 48.895C156.01 48.895 155.398 49.069 154.858 49.417C154.33 49.753 153.91 50.221 153.598 50.821C153.298 51.421 153.148 52.117 153.148 52.909C153.148 53.689 153.31 54.379 153.634 54.979C153.958 55.579 154.408 56.053 154.984 56.401C155.56 56.737 156.22 56.905 156.964 56.905C157.432 56.905 157.9 56.827 158.368 56.671C158.848 56.503 159.226 56.287 159.502 56.023C159.598 55.927 159.712 55.879 159.844 55.879C159.988 55.867 160.108 55.903 160.204 55.987C160.336 56.095 160.402 56.215 160.402 56.347C160.414 56.479 160.36 56.599 160.24 56.707C159.856 57.055 159.352 57.343 158.728 57.571C158.116 57.799 157.528 57.913 156.964 57.913Z" fill="#2F2F2F" fill-opacity="1.000000" fill-rule="evenodd"/>
</svg>
