<svg width="252" height="64" viewBox="0 0 252 64" fill="none" xmlns="http://www.w3.org/2000/svg">
<path d="M7.17383 26.8125H10.7422V14.166H6.96875V11.9785H16.7852C17.7513 11.9785 18.6126 11.9876 19.3691 12.0059C20.1348 12.0241 20.8047 12.0469 21.3789 12.0742C21.9622 12.1016 22.4681 12.138 22.8965 12.1836C23.3249 12.2292 23.694 12.2793 24.0039 12.334C24.7513 12.4707 25.3848 12.6667 25.9043 12.9219C26.4329 13.1771 26.8613 13.4824 27.1895 13.8379C27.5176 14.1934 27.7546 14.5944 27.9004 15.041C28.0553 15.4785 28.1328 15.9525 28.1328 16.4629C28.1328 16.8275 28.0553 17.2012 27.9004 17.584C27.7454 17.9577 27.5039 18.3177 27.1758 18.6641C26.8568 19.0013 26.4512 19.3112 25.959 19.5938C25.4759 19.8763 24.9062 20.1042 24.25 20.2773C24.9154 20.3594 25.5078 20.5234 26.0273 20.7695C26.556 21.0065 26.998 21.3027 27.3535 21.6582C27.7181 22.0046 27.9915 22.3965 28.1738 22.834C28.3652 23.2715 28.4609 23.7272 28.4609 24.2012C28.4609 24.7572 28.3835 25.2721 28.2285 25.7461C28.0736 26.2109 27.8184 26.6302 27.4629 27.0039C27.1165 27.3776 26.6608 27.7012 26.0957 27.9746C25.5306 28.2389 24.8379 28.4486 24.0176 28.6035C23.1335 28.7676 22.1172 28.877 20.9688 28.9316C19.8294 28.9772 18.5124 29 17.0176 29H7.17383V26.8125ZM17.0176 29.957C18.4668 29.957 19.7975 29.9388 21.0098 29.9023C22.2311 29.875 23.2975 29.7702 24.209 29.5879C25.2298 29.3874 26.0775 29.1003 26.752 28.7266C27.4264 28.3438 27.9596 27.9108 28.3516 27.4277C28.7526 26.9447 29.0306 26.4206 29.1855 25.8555C29.3496 25.2904 29.4316 24.7207 29.4316 24.1465C29.4316 23.7454 29.3724 23.3535 29.2539 22.9707C29.1354 22.5788 28.9531 22.2142 28.707 21.877C28.4609 21.5397 28.1465 21.2344 27.7637 20.9609C27.3809 20.6784 26.9251 20.446 26.3965 20.2637C27.3353 19.7988 28.0234 19.252 28.4609 18.623C28.8984 17.985 29.1172 17.265 29.1172 16.4629C29.1172 15.6699 28.903 14.918 28.4746 14.207C28.0462 13.487 27.3444 12.8809 26.3691 12.3887C26.916 12.5254 27.3945 12.7259 27.8047 12.9902C28.2148 13.2454 28.5566 13.5462 28.8301 13.8926C29.1126 14.2389 29.3223 14.6217 29.459 15.041C29.5957 15.4603 29.6641 15.8978 29.6641 16.3535C29.6641 17.1829 29.4954 17.9076 29.1582 18.5273C28.821 19.138 28.2786 19.7077 27.5312 20.2363C28.4062 20.7012 29.0306 21.2708 29.4043 21.9453C29.7871 22.6107 29.9785 23.3444 29.9785 24.1465C29.9785 24.8574 29.8783 25.5319 29.6777 26.1699C29.4772 26.7988 29.1491 27.373 28.6934 27.8926C28.2467 28.403 27.6634 28.8451 26.9434 29.2188C26.2324 29.6016 25.3574 29.8932 24.3184 30.0938C23.3978 30.276 22.3405 30.3854 21.1465 30.4219C19.9616 30.4583 18.5853 30.4766 17.0176 30.4766H8.04883V29.957H17.0176ZM18.9316 19.498C20.0527 19.498 20.9779 19.4434 21.707 19.334C22.4453 19.2246 23.0332 19.056 23.4707 18.8281C23.9082 18.5911 24.2135 18.2995 24.3867 17.9531C24.569 17.5977 24.6602 17.1738 24.6602 16.6816C24.6602 16.1895 24.5052 15.7474 24.1953 15.3555C23.8854 14.9635 23.3887 14.6628 22.7051 14.4531C22.2402 14.3164 21.7025 14.2344 21.0918 14.207C20.4811 14.1797 19.7611 14.166 18.9316 14.166H13.8594V19.498H18.9316ZM14.8438 15.123H18.9316C19.6243 15.123 20.2214 15.1413 20.7227 15.1777C21.224 15.2051 21.6523 15.2598 22.0078 15.3418C22.3633 15.4238 22.6641 15.5332 22.9102 15.6699C23.1562 15.7975 23.375 15.9616 23.5664 16.1621C23.3841 16.0801 23.1654 16.0072 22.9102 15.9434C22.6641 15.8796 22.3587 15.8249 21.9941 15.7793C21.6296 15.7337 21.1966 15.7018 20.6953 15.6836C20.2031 15.6562 19.6152 15.6426 18.9316 15.6426H15.3906V18.6777H14.8438V15.123ZM7.78906 15.123H10.168V15.6699H7.78906V15.123ZM19.1914 26.8125C20.1302 26.8125 20.9368 26.7897 21.6113 26.7441C22.2858 26.6895 22.8691 26.571 23.3613 26.3887C23.6712 26.2702 23.9264 26.1289 24.127 25.9648C24.3366 25.8008 24.5007 25.623 24.6191 25.4316C24.7376 25.2311 24.8197 25.0169 24.8652 24.7891C24.9108 24.5612 24.9336 24.3242 24.9336 24.0781C24.9336 23.4766 24.7467 22.957 24.373 22.5195C24.0085 22.0729 23.4388 21.7357 22.6641 21.5078C22.1901 21.3711 21.6478 21.2891 21.0371 21.2617C20.4264 21.2253 19.7337 21.207 18.959 21.207H13.8594V26.8125H19.1914ZM14.8438 22.1641H18.9316C19.6243 22.1641 20.235 22.1868 20.7637 22.2324C21.2923 22.278 21.748 22.3509 22.1309 22.4512C22.5228 22.5423 22.8555 22.6608 23.1289 22.8066C23.4023 22.9434 23.6348 23.112 23.8262 23.3125C23.5892 23.2031 23.334 23.112 23.0605 23.0391C22.7962 22.957 22.4772 22.8887 22.1035 22.834C21.7298 22.7793 21.2878 22.7428 20.7773 22.7246C20.2669 22.6973 19.6517 22.6836 18.9316 22.6836H15.3906V25.9922H14.8438V22.1641ZM33.2871 22.4512C33.2871 21.6035 33.4648 20.7604 33.8203 19.9219C34.1758 19.0833 34.6999 18.3314 35.3926 17.666C36.0944 16.9915 36.9603 16.4447 37.9902 16.0254C39.0202 15.6061 40.2051 15.3965 41.5449 15.3965C41.9733 15.3965 42.429 15.4284 42.9121 15.4922C43.4043 15.556 43.8919 15.6608 44.375 15.8066C44.8672 15.9525 45.3457 16.1484 45.8105 16.3945C46.2754 16.6315 46.6992 16.9232 47.082 17.2695V15.8066H52.9609V18.1309H49.9531V26.9492H52.9609V29H47.082V27.2227C46.7266 27.5781 46.321 27.8926 45.8652 28.166C45.4186 28.4395 44.9401 28.6673 44.4297 28.8496C43.9284 29.0319 43.4043 29.1686 42.8574 29.2598C42.3197 29.36 41.7819 29.4102 41.2441 29.4102C39.9316 29.4102 38.7786 29.2233 37.7852 28.8496C36.7917 28.4759 35.9622 27.9746 35.2969 27.3457C34.6315 26.7077 34.1302 25.9694 33.793 25.1309C33.4557 24.2832 33.2871 23.39 33.2871 22.4512ZM50.9375 19.0879H53.9453V16.8457H54.4922V19.6074H51.4844V26.1289H50.9375V19.0879ZM36.2539 22.3418C36.2539 23.0983 36.3861 23.7819 36.6504 24.3926C36.9238 25.0033 37.293 25.5228 37.7578 25.9512C38.2227 26.3796 38.7741 26.7122 39.4121 26.9492C40.0501 27.1862 40.7383 27.3047 41.4766 27.3047C41.9049 27.3047 42.3379 27.2637 42.7754 27.1816C43.222 27.0905 43.6504 26.9583 44.0605 26.7852C44.4798 26.6029 44.8717 26.3796 45.2363 26.1152C45.61 25.8418 45.929 25.5228 46.1934 25.1582C46.4668 24.7845 46.681 24.3607 46.8359 23.8867C47 23.4128 47.082 22.8841 47.082 22.3008C47.082 21.6536 46.9316 21.043 46.6309 20.4688C46.3301 19.8854 45.9245 19.375 45.4141 18.9375C44.9128 18.5 44.3249 18.1536 43.6504 17.8984C42.9759 17.6432 42.265 17.5156 41.5176 17.5156C40.7702 17.5156 40.0729 17.6296 39.4258 17.8574C38.7878 18.0853 38.2318 18.4089 37.7578 18.8281C37.293 19.2474 36.9238 19.7578 36.6504 20.3594C36.3861 20.9518 36.2539 21.6126 36.2539 22.3418ZM37.1973 22.4102C37.1973 21.8359 37.3021 21.3118 37.5117 20.8379C37.7305 20.3548 38.0312 19.9401 38.4141 19.5938C38.7969 19.2383 39.2526 18.9648 39.7812 18.7734C40.3099 18.5729 40.8887 18.4727 41.5176 18.4727C41.9915 18.4727 42.4199 18.5273 42.8027 18.6367C43.1855 18.737 43.5182 18.8646 43.8008 19.0195C44.0833 19.1654 44.3158 19.3203 44.498 19.4844C44.6803 19.6393 44.8079 19.776 44.8809 19.8945C44.3887 19.6211 43.8828 19.4023 43.3633 19.2383C42.8438 19.0742 42.2285 18.9922 41.5176 18.9922C40.9434 18.9922 40.4238 19.0879 39.959 19.2793C39.5033 19.4616 39.1113 19.7122 38.7832 20.0312C38.4551 20.3503 38.1999 20.7194 38.0176 21.1387C37.8444 21.5579 37.7578 22 37.7578 22.4648C37.7578 22.9023 37.8079 23.3125 37.9082 23.6953C38.0085 24.0781 38.168 24.4336 38.3867 24.7617C38.6146 25.0807 38.9062 25.377 39.2617 25.6504C39.6263 25.9147 40.0638 26.1471 40.5742 26.3477C40 26.2474 39.4987 26.0788 39.0703 25.8418C38.651 25.5957 38.3001 25.2995 38.0176 24.9531C37.7441 24.6068 37.5391 24.2194 37.4023 23.791C37.2656 23.3535 37.1973 22.8932 37.1973 22.4102ZM53.9453 29.957V27.7148H54.4922V30.4766H47.9023V29.957H53.9453ZM35.0508 28.4121C35.4245 28.7129 35.8483 28.9818 36.3223 29.2188C36.7962 29.4648 37.3021 29.6699 37.8398 29.834C38.3776 30.0072 38.9336 30.1393 39.5078 30.2305C40.0911 30.3216 40.6745 30.3672 41.2578 30.3672C42.2695 30.3672 43.2129 30.2396 44.0879 29.9844C44.972 29.7383 45.7559 29.3919 46.4395 28.9453V29.5742C45.7559 29.9844 44.9629 30.3034 44.0605 30.5312C43.1673 30.7682 42.2376 30.8867 41.2715 30.8867C40.6061 30.8867 39.9544 30.832 39.3164 30.7227C38.6784 30.6224 38.0859 30.4674 37.5391 30.2578C36.9922 30.0482 36.5046 29.7884 36.0762 29.4785C35.6478 29.1686 35.306 28.8132 35.0508 28.4121ZM57.7871 22.6562C57.7871 21.6901 57.9922 20.7695 58.4023 19.8945C58.8216 19.0195 59.4049 18.2493 60.1523 17.584C60.9089 16.9186 61.8158 16.39 62.873 15.998C63.9395 15.597 65.1152 15.3965 66.4004 15.3965C67.4759 15.3965 68.4466 15.5423 69.3125 15.834C70.1875 16.1165 70.9941 16.5176 71.7324 17.0371V15.8203H74.6719V20.0586H71.8691C71.6139 19.7396 71.2995 19.4297 70.9258 19.1289C70.5521 18.819 70.1283 18.5456 69.6543 18.3086C69.1895 18.0716 68.679 17.8802 68.123 17.7344C67.5671 17.5885 66.9792 17.5156 66.3594 17.5156C65.5664 17.5156 64.8281 17.6432 64.1445 17.8984C63.4609 18.1536 62.8685 18.5091 62.3672 18.9648C61.8659 19.4206 61.4694 19.9583 61.1777 20.5781C60.8952 21.1979 60.7539 21.8724 60.7539 22.6016C60.7539 23.3581 60.9043 24.028 61.2051 24.6113C61.515 25.1947 61.9388 25.6868 62.4766 26.0879C63.0143 26.4798 63.6523 26.7806 64.3906 26.9902C65.1289 27.1908 65.931 27.291 66.7969 27.291C68.2005 27.291 69.4401 27.0677 70.5156 26.6211C71.6003 26.1745 72.5664 25.4863 73.4141 24.5566L74.8633 26.2109C73.8698 27.2773 72.7168 28.0794 71.4043 28.6172C70.0918 29.1458 68.5788 29.4102 66.8652 29.4102C65.4251 29.4102 64.14 29.2507 63.0098 28.9316C61.8887 28.6035 60.9408 28.1432 60.166 27.5508C59.3913 26.9583 58.7988 26.2474 58.3887 25.418C57.9876 24.5885 57.7871 23.668 57.7871 22.6562ZM72.5391 21.0156H75.6562V16.3945H76.2031V21.5352H72.5391V21.0156ZM61.7383 22.6016C61.7383 21.9909 61.8568 21.4349 62.0938 20.9336C62.3307 20.4232 62.6543 19.9857 63.0645 19.6211C63.4837 19.2565 63.9759 18.974 64.541 18.7734C65.1061 18.5729 65.7168 18.4727 66.373 18.4727C66.765 18.4727 67.1615 18.5091 67.5625 18.582C67.9635 18.6549 68.3418 18.7598 68.6973 18.8965C69.0527 19.0241 69.3717 19.179 69.6543 19.3613C69.9368 19.5436 70.1602 19.7441 70.3242 19.9629C69.7773 19.6712 69.1895 19.4388 68.5605 19.2656C67.9408 19.0833 67.2298 18.9922 66.4277 18.9922C65.7897 18.9922 65.2155 19.0924 64.7051 19.293C64.1947 19.4844 63.7572 19.7441 63.3926 20.0723C63.0371 20.4004 62.7637 20.7832 62.5723 21.2207C62.3809 21.6582 62.2852 22.1185 62.2852 22.6016C62.2852 23.0846 62.3581 23.513 62.5039 23.8867C62.6589 24.2513 62.8776 24.584 63.1602 24.8848C63.4427 25.1764 63.7891 25.4362 64.1992 25.6641C64.6094 25.8828 65.0742 26.0833 65.5938 26.2656C64.9922 26.2109 64.4499 26.0833 63.9668 25.8828C63.4928 25.6823 63.0918 25.4271 62.7637 25.1172C62.4355 24.7982 62.1803 24.429 61.998 24.0098C61.8249 23.5814 61.7383 23.112 61.7383 22.6016ZM59.7422 28.3711C60.1797 28.6901 60.6673 28.9727 61.2051 29.2188C61.7428 29.474 62.3171 29.6836 62.9277 29.8477C63.5475 30.0208 64.1901 30.153 64.8555 30.2441C65.5208 30.3353 66.1953 30.3809 66.8789 30.3809C67.6992 30.3809 68.5013 30.3125 69.2852 30.1758C70.0781 30.0482 70.821 29.8613 71.5137 29.6152C72.2064 29.3691 72.8398 29.0729 73.4141 28.7266C73.9883 28.3711 74.4759 27.9746 74.877 27.5371L75.2734 27.8926C74.2799 28.9043 73.0723 29.6562 71.6504 30.1484C70.2376 30.6497 68.638 30.9004 66.8516 30.9004C66.1133 30.9004 65.3796 30.8457 64.6504 30.7363C63.9212 30.627 63.2376 30.4629 62.5996 30.2441C61.9616 30.0345 61.3919 29.7702 60.8906 29.4512C60.3984 29.1413 60.0156 28.7812 59.7422 28.3711ZM79.7578 26.9492H82.7656V11.9785H79.7578V9.92773H85.7051V22.5332L92.7188 18.1309H90.5039V15.8066H99.4727V18.1309H96.0684L90.9961 21.248L96.8203 26.9492H99.7871V29H91.2969V26.9492H93.0879L88.6992 22.6562L85.7051 24.502V26.9492H88.0293V29H79.7578V26.9492ZM86.6621 10.625H87.209V20.7422L86.6621 21.0703V10.625ZM80.5781 12.9355H82.1914V13.4551H80.5781V12.9355ZM96.793 18.9648H100.457V16.5723H101.004V19.4844H96.9023L93.416 21.5078L98.1328 26.1289H97.3672L92.541 21.4121L96.793 18.9648ZM86.6621 25.0488L89.082 23.5449L89.4512 23.9141L87.1816 25.3223V26.1289H86.6621V25.0488ZM100.771 29.957V27.7148H101.318V30.4766H92.1172V29.957H100.771ZM89.0137 29.957V27.7148H89.5605V30.4766H80.5781V29.957H89.0137ZM116.029 9.66797H119.379V12.4023H116.029V9.66797ZM116.85 13.3594H120.363V10.4336H120.91V13.8789H116.85V13.3594ZM113.158 26.9492H116.85L116.439 18.1309H113.158V15.8066H119.379V26.9492H122.523V29H113.158V26.9492ZM120.336 16.5039H120.883V26.1289H120.336V16.5039ZM113.979 19.0879H115.865V19.6074H113.979V19.0879ZM123.508 29.957V27.7148H124.055V30.4766H113.979V29.957H123.508ZM126.557 26.9492H129.564V18.1309H126.557V15.8066H132.504V17.8711C132.786 17.5247 133.124 17.2012 133.516 16.9004C133.917 16.5996 134.363 16.3398 134.855 16.1211C135.348 15.8932 135.881 15.7155 136.455 15.5879C137.029 15.4603 137.631 15.3965 138.26 15.3965C139.208 15.3965 140.069 15.5332 140.844 15.8066C141.618 16.071 142.279 16.4857 142.826 17.0508C143.373 17.6068 143.792 18.3132 144.084 19.1699C144.385 20.0176 144.535 21.0247 144.535 22.1914V26.9492H147.543V29H139.271V26.9492H141.596V23.3535C141.596 22.6152 141.559 21.959 141.486 21.3848C141.423 20.8014 141.327 20.3457 141.199 20.0176C141.035 19.5983 140.826 19.2428 140.57 18.9512C140.324 18.6595 140.042 18.4225 139.723 18.2402C139.413 18.0579 139.071 17.9258 138.697 17.8438C138.324 17.7617 137.927 17.7207 137.508 17.7207C137.061 17.7207 136.596 17.8027 136.113 17.9668C135.639 18.1309 135.174 18.3633 134.719 18.6641C134.272 18.9557 133.853 19.3021 133.461 19.7031C133.078 20.1042 132.759 20.5371 132.504 21.002V26.9492H134.828V29H126.557V26.9492ZM145.52 22.2871C145.52 21.485 145.456 20.7422 145.328 20.0586C145.21 19.3659 145.027 18.7461 144.781 18.1992C144.535 17.6432 144.23 17.1647 143.865 16.7637C143.51 16.3626 143.095 16.0436 142.621 15.8066C143.241 15.9616 143.77 16.2259 144.207 16.5996C144.645 16.9642 145 17.429 145.273 17.9941C145.547 18.5592 145.747 19.2109 145.875 19.9492C146.003 20.6875 146.066 21.4987 146.066 22.3828V26.1289H145.52V22.2871ZM133.488 21.3438C133.716 20.9427 133.985 20.5781 134.295 20.25C134.614 19.9219 134.956 19.6439 135.32 19.416C135.694 19.179 136.081 18.9967 136.482 18.8691C136.893 18.7415 137.298 18.6777 137.699 18.6777C138.328 18.6777 138.839 18.7962 139.23 19.0332C139.622 19.2702 139.91 19.571 140.092 19.9355C139.809 19.7259 139.477 19.5482 139.094 19.4023C138.72 19.2565 138.246 19.1836 137.672 19.1836C137.316 19.1836 136.956 19.252 136.592 19.3887C136.227 19.5163 135.881 19.6895 135.553 19.9082C135.225 20.127 134.928 20.3776 134.664 20.6602C134.4 20.9427 134.19 21.2298 134.035 21.5215V26.1289H133.488V21.3438ZM127.377 19.0879H128.99V19.6074H127.377V19.0879ZM148.527 29.957V27.7148H149.074V30.4766H140.092V29.957H148.527ZM135.812 29.957V27.7148H136.359V30.4766H127.377V29.957H135.812ZM162.568 18.1309H159.561V15.8066H162.568V13.0449L165.508 11.8145V15.8066H172.303V18.1309H165.508V24.6523C165.508 25.3359 165.722 25.8464 166.15 26.1836C166.579 26.5117 167.162 26.6758 167.9 26.6758H171.756V29H167.9C167.162 29 166.469 28.9225 165.822 28.7676C165.175 28.6035 164.61 28.3346 164.127 27.9609C163.644 27.5781 163.261 27.0768 162.979 26.457C162.705 25.8281 162.568 25.0443 162.568 24.1055V18.1309ZM166.492 12.5664L167.039 12.3203V14.9863H166.492V12.5664ZM166.465 18.9375H173.287V16.4219H173.834V19.457H167.012V25.7598C166.702 25.6777 166.52 25.4954 166.465 25.2129V18.9375ZM160.381 19.0879H162.021V19.6074H160.381V19.0879ZM162.486 27.8242C162.778 28.2344 163.102 28.5762 163.457 28.8496C163.822 29.123 164.227 29.3418 164.674 29.5059C165.12 29.6699 165.608 29.7839 166.137 29.8477C166.665 29.9206 167.244 29.957 167.873 29.957H172.74V27.291H173.287V30.4766H167.805C167.103 30.4766 166.465 30.431 165.891 30.3398C165.316 30.2487 164.806 30.0983 164.359 29.8887C163.922 29.6882 163.544 29.4147 163.225 29.0684C162.915 28.7311 162.669 28.3164 162.486 27.8242ZM179.768 9.66797H183.117V12.4023H179.768V9.66797ZM180.588 13.3594H184.102V10.4336H184.648V13.8789H180.588V13.3594ZM176.896 26.9492H180.588L180.178 18.1309H176.896V15.8066H183.117V26.9492H186.262V29H176.896V26.9492ZM184.074 16.5039H184.621V26.1289H184.074V16.5039ZM177.717 19.0879H179.604V19.6074H177.717V19.0879ZM187.246 29.957V27.7148H187.793V30.4766H177.717V29.957H187.246ZM190.295 26.9492H193.303V18.1309H190.295V15.8066H196.242V17.8574C196.516 17.5111 196.844 17.1875 197.227 16.8867C197.609 16.5859 198.038 16.3262 198.512 16.1074C198.995 15.8887 199.514 15.7155 200.07 15.5879C200.635 15.4603 201.232 15.3965 201.861 15.3965C203.146 15.3965 204.245 15.6471 205.156 16.1484C206.077 16.6497 206.788 17.4245 207.289 18.4727C207.626 18.026 208.018 17.6159 208.465 17.2422C208.921 16.8594 209.417 16.5312 209.955 16.2578C210.493 15.9844 211.067 15.7747 211.678 15.6289C212.298 15.474 212.945 15.3965 213.619 15.3965C214.558 15.3965 215.406 15.5332 216.162 15.8066C216.919 16.0801 217.561 16.4993 218.09 17.0645C218.628 17.6204 219.038 18.3268 219.32 19.1836C219.612 20.0312 219.758 21.0339 219.758 22.1914V26.9492H222.766V29H214.494V26.9492H216.818V23.4219C216.818 22.5651 216.782 21.8177 216.709 21.1797C216.636 20.5417 216.513 20.0495 216.34 19.7031C215.993 18.9831 215.524 18.4727 214.932 18.1719C214.348 17.8711 213.66 17.7207 212.867 17.7207C212.411 17.7207 211.947 17.8073 211.473 17.9805C210.999 18.1445 210.543 18.377 210.105 18.6777C209.668 18.9785 209.262 19.334 208.889 19.7441C208.515 20.1543 208.201 20.5964 207.945 21.0703C207.964 21.2526 207.977 21.4395 207.986 21.6309C207.995 21.8132 208 22 208 22.1914V26.9492H210.324V29H202.736V26.9492H205.061V23.3535C205.061 22.6152 205.024 21.959 204.951 21.3848C204.887 20.8014 204.792 20.3457 204.664 20.0176C204.345 19.1882 203.88 18.6003 203.27 18.2539C202.659 17.8984 201.939 17.7207 201.109 17.7207C200.654 17.7207 200.193 17.8027 199.729 17.9668C199.264 18.1309 198.812 18.3587 198.375 18.6504C197.947 18.9421 197.546 19.2884 197.172 19.6895C196.807 20.0905 196.497 20.5234 196.242 20.9883V26.9492H198.566V29H190.295V26.9492ZM217.844 15.8066C218.464 15.9616 218.992 16.2259 219.43 16.5996C219.867 16.9642 220.223 17.429 220.496 17.9941C220.77 18.5592 220.97 19.2109 221.098 19.9492C221.225 20.6875 221.289 21.4987 221.289 22.3828V26.1289H220.742V22.2871C220.742 21.485 220.678 20.7422 220.551 20.0586C220.432 19.3659 220.25 18.7461 220.004 18.1992C219.758 17.6432 219.452 17.1647 219.088 16.7637C218.732 16.3626 218.318 16.0436 217.844 15.8066ZM206.086 15.8066C206.523 15.8613 206.906 15.9844 207.234 16.1758C207.572 16.3672 207.831 16.5768 208.014 16.8047L207.617 17.1738C207.562 17.0645 207.476 16.9414 207.357 16.8047C207.248 16.668 207.12 16.5358 206.975 16.4082C206.838 16.2715 206.688 16.153 206.523 16.0527C206.368 15.9434 206.223 15.8613 206.086 15.8066ZM208.984 21.3438C209.212 20.9427 209.477 20.5781 209.777 20.25C210.078 19.9219 210.402 19.6439 210.748 19.416C211.094 19.179 211.459 18.9967 211.842 18.8691C212.225 18.7415 212.617 18.6777 213.018 18.6777C213.646 18.6777 214.161 18.7962 214.562 19.0332C214.973 19.2702 215.269 19.571 215.451 19.9355C215.169 19.7259 214.831 19.5527 214.439 19.416C214.048 19.2702 213.564 19.1973 212.99 19.1973C212.635 19.1973 212.279 19.2611 211.924 19.3887C211.577 19.5072 211.249 19.6712 210.939 19.8809C210.639 20.0905 210.365 20.332 210.119 20.6055C209.873 20.8789 209.677 21.1615 209.531 21.4531V26.1289H208.984V21.3438ZM197.227 21.3438C197.454 20.9427 197.719 20.5781 198.02 20.25C198.32 19.9219 198.644 19.6439 198.99 19.416C199.337 19.179 199.701 18.9967 200.084 18.8691C200.467 18.7415 200.859 18.6777 201.26 18.6777C201.889 18.6777 202.404 18.7962 202.805 19.0332C203.215 19.2702 203.511 19.571 203.693 19.9355C203.411 19.7259 203.074 19.5527 202.682 19.416C202.29 19.2702 201.807 19.1973 201.232 19.1973C200.877 19.1973 200.521 19.2611 200.166 19.3887C199.82 19.5072 199.492 19.6712 199.182 19.8809C198.881 20.0905 198.607 20.332 198.361 20.6055C198.115 20.8789 197.919 21.1615 197.773 21.4531V26.1289H197.227V21.3438ZM191.115 19.0879H192.729V19.6074H191.115V19.0879ZM223.75 29.957V27.7148H224.297V30.4766H215.314V29.957H223.75ZM211.309 29.957V27.7148H211.855V30.4766H203.557V29.957H211.309ZM199.551 29.957V27.7148H200.098V30.4766H191.115V29.957H199.551ZM226.389 22.6562C226.389 21.6901 226.566 20.7695 226.922 19.8945C227.277 19.0195 227.811 18.2493 228.521 17.584C229.232 16.9186 230.117 16.39 231.174 15.998C232.231 15.597 233.457 15.3965 234.852 15.3965C236.164 15.3965 237.335 15.5742 238.365 15.9297C239.395 16.276 240.27 16.7819 240.99 17.4473C241.71 18.1126 242.257 18.9284 242.631 19.8945C243.014 20.8516 243.205 21.9453 243.205 23.1758H229.383C229.465 23.832 229.674 24.4154 230.012 24.9258C230.358 25.4362 230.796 25.8691 231.324 26.2246C231.853 26.571 232.45 26.8353 233.115 27.0176C233.79 27.1999 234.492 27.291 235.221 27.291C235.813 27.291 236.415 27.2454 237.025 27.1543C237.645 27.054 238.229 26.9219 238.775 26.7578C239.322 26.5938 239.81 26.4115 240.238 26.2109C240.667 26.0013 240.995 25.7871 241.223 25.5684H241.742L243.027 26.9629C242.089 27.765 240.945 28.3757 239.596 28.7949C238.256 29.2051 236.775 29.4102 235.152 29.4102C233.74 29.4102 232.486 29.237 231.393 28.8906C230.308 28.5443 229.392 28.0658 228.645 27.4551C227.906 26.8444 227.346 26.1289 226.963 25.3086C226.58 24.4883 226.389 23.6042 226.389 22.6562ZM244.135 24.1328C244.153 23.9961 244.167 23.8503 244.176 23.6953C244.185 23.5312 244.189 23.3581 244.189 23.1758C244.189 22.401 244.107 21.6628 243.943 20.9609C243.788 20.25 243.556 19.5938 243.246 18.9922C242.945 18.3815 242.572 17.8255 242.125 17.3242C241.678 16.8229 241.173 16.3945 240.607 16.0391C241.209 16.276 241.76 16.6042 242.262 17.0234C242.772 17.4336 243.21 17.9349 243.574 18.5273C243.939 19.1198 244.221 19.8034 244.422 20.5781C244.632 21.3529 244.736 22.2188 244.736 23.1758C244.736 23.2487 244.732 23.3398 244.723 23.4492C244.723 23.5586 244.718 23.6816 244.709 23.8184C244.7 23.9551 244.686 24.0964 244.668 24.2422C244.659 24.3789 244.645 24.5156 244.627 24.6523H231.707C231.88 24.944 232.199 25.2448 232.664 25.5547C233.129 25.8555 233.73 26.1107 234.469 26.3203C234.013 26.3203 233.585 26.2656 233.184 26.1562C232.792 26.0469 232.432 25.8965 232.104 25.7051C231.785 25.5137 231.502 25.2858 231.256 25.0215C231.019 24.748 230.832 24.4518 230.695 24.1328H244.135ZM240.047 21.4668C239.901 20.8379 239.673 20.2773 239.363 19.7852C239.062 19.293 238.689 18.8828 238.242 18.5547C237.796 18.2174 237.285 17.9622 236.711 17.7891C236.137 17.6068 235.508 17.5156 234.824 17.5156C234.086 17.5156 233.411 17.6159 232.801 17.8164C232.199 18.0078 231.671 18.2812 231.215 18.6367C230.759 18.9831 230.381 19.3978 230.08 19.8809C229.788 20.3639 229.583 20.8926 229.465 21.4668H240.047ZM230.709 20.8789C231.046 20.1315 231.575 19.5436 232.295 19.1152C233.024 18.6868 233.867 18.4727 234.824 18.4727C235.216 18.4727 235.594 18.5046 235.959 18.5684C236.333 18.6322 236.674 18.7324 236.984 18.8691C237.303 18.9967 237.581 19.1562 237.818 19.3477C238.055 19.5391 238.242 19.7578 238.379 20.0039C237.859 19.6576 237.303 19.4023 236.711 19.2383C236.118 19.0742 235.48 18.9922 234.797 18.9922C234.004 18.9922 233.307 19.1562 232.705 19.4844C232.104 19.8125 231.648 20.2773 231.338 20.8789H230.709ZM228.043 28.3984C228.927 29.0273 229.952 29.515 231.119 29.8613C232.295 30.2077 233.639 30.3809 235.152 30.3809C236.629 30.3809 238.01 30.2122 239.295 29.875C240.589 29.5378 241.756 29.0228 242.795 28.3301L243.164 28.7266C241.988 29.5195 240.749 30.0801 239.445 30.4082C238.151 30.7363 236.793 30.9004 235.371 30.9004C233.521 30.9004 231.985 30.6771 230.764 30.2305C229.551 29.7839 228.645 29.1732 228.043 28.3984Z" fill="white"/>
<path d="M12.496 40H239.504" stroke="white"/>
<path d="M95.836 58C95.608 58 95.446 57.886 95.35 57.658L89.95 44.824C89.83 44.548 89.824 44.332 89.932 44.176C90.052 44.02 90.214 43.942 90.418 43.942C90.646 43.942 90.82 44.068 90.94 44.32L96.124 56.722H95.602L100.714 44.392C100.774 44.224 100.852 44.11 100.948 44.05C101.044 43.978 101.164 43.942 101.308 43.942C101.524 43.942 101.668 44.032 101.74 44.212C101.812 44.392 101.8 44.596 101.704 44.824L96.322 57.658C96.262 57.79 96.184 57.88 96.088 57.928C96.004 57.976 95.92 58 95.836 58ZM104.659 58C104.503 58 104.371 57.952 104.263 57.856C104.167 57.748 104.119 57.616 104.119 57.46V48.694C104.119 48.526 104.167 48.394 104.263 48.298C104.371 48.202 104.503 48.154 104.659 48.154C104.827 48.154 104.959 48.202 105.055 48.298C105.151 48.394 105.199 48.526 105.199 48.694V57.46C105.199 57.616 105.151 57.748 105.055 57.856C104.959 57.952 104.827 58 104.659 58ZM104.641 46.084C104.413 46.084 104.215 46.006 104.047 45.85C103.891 45.682 103.813 45.478 103.813 45.238C103.813 44.962 103.897 44.758 104.065 44.626C104.245 44.482 104.443 44.41 104.659 44.41C104.863 44.41 105.049 44.482 105.217 44.626C105.397 44.758 105.487 44.962 105.487 45.238C105.487 45.478 105.403 45.682 105.235 45.85C105.079 46.006 104.881 46.084 104.641 46.084ZM117.318 58C117.162 58 117.03 57.952 116.922 57.856C116.826 57.748 116.778 57.616 116.778 57.46V52.618C116.778 51.826 116.622 51.172 116.31 50.656C116.01 50.14 115.596 49.756 115.068 49.504C114.552 49.24 113.964 49.108 113.304 49.108C112.656 49.108 112.074 49.234 111.558 49.486C111.042 49.726 110.634 50.062 110.334 50.494C110.034 50.926 109.884 51.412 109.884 51.952H108.984C109.032 51.208 109.254 50.542 109.65 49.954C110.046 49.354 110.562 48.886 111.198 48.55C111.834 48.202 112.536 48.028 113.304 48.028C114.168 48.028 114.942 48.208 115.626 48.568C116.322 48.916 116.868 49.432 117.264 50.116C117.66 50.788 117.858 51.622 117.858 52.618V57.46C117.858 57.616 117.804 57.748 117.696 57.856C117.6 57.952 117.474 58 117.318 58ZM109.344 58C109.188 58 109.056 57.952 108.948 57.856C108.852 57.748 108.804 57.616 108.804 57.46V48.694C108.804 48.526 108.852 48.394 108.948 48.298C109.056 48.202 109.188 48.154 109.344 48.154C109.512 48.154 109.644 48.202 109.74 48.298C109.836 48.394 109.884 48.526 109.884 48.694V57.46C109.884 57.616 109.836 57.748 109.74 57.856C109.644 57.952 109.512 58 109.344 58ZM124.947 58C124.287 57.988 123.699 57.838 123.183 57.55C122.667 57.25 122.265 56.842 121.977 56.326C121.689 55.798 121.545 55.204 121.545 54.544V45.58C121.545 45.412 121.593 45.28 121.689 45.184C121.797 45.076 121.929 45.022 122.085 45.022C122.253 45.022 122.385 45.076 122.481 45.184C122.589 45.28 122.643 45.412 122.643 45.58V54.544C122.643 55.24 122.859 55.81 123.291 56.254C123.723 56.686 124.281 56.902 124.965 56.902H125.361C125.529 56.902 125.661 56.956 125.757 57.064C125.865 57.16 125.919 57.292 125.919 57.46C125.919 57.616 125.865 57.748 125.757 57.856C125.661 57.952 125.529 58 125.361 58H124.947ZM120.141 49.486C119.997 49.486 119.877 49.444 119.781 49.36C119.697 49.264 119.655 49.144 119.655 49C119.655 48.856 119.697 48.742 119.781 48.658C119.877 48.562 119.997 48.514 120.141 48.514H125.019C125.163 48.514 125.277 48.562 125.361 48.658C125.457 48.742 125.505 48.856 125.505 49C125.505 49.144 125.457 49.264 125.361 49.36C125.277 49.444 125.163 49.486 125.019 49.486H120.141ZM132.675 58.108C131.715 58.108 130.851 57.892 130.083 57.46C129.327 57.016 128.727 56.416 128.283 55.66C127.851 54.892 127.635 54.034 127.635 53.086C127.635 52.126 127.851 51.268 128.283 50.512C128.727 49.744 129.327 49.144 130.083 48.712C130.851 48.268 131.715 48.046 132.675 48.046C133.635 48.046 134.493 48.268 135.249 48.712C136.005 49.144 136.599 49.744 137.031 50.512C137.475 51.268 137.697 52.126 137.697 53.086L137.247 53.806C137.247 54.622 137.043 55.354 136.635 56.002C136.239 56.65 135.699 57.166 135.015 57.55C134.331 57.922 133.551 58.108 132.675 58.108ZM132.675 57.1C133.431 57.1 134.103 56.926 134.691 56.578C135.291 56.218 135.759 55.738 136.095 55.138C136.443 54.526 136.617 53.842 136.617 53.086C136.617 52.318 136.443 51.634 136.095 51.034C135.759 50.422 135.291 49.942 134.691 49.594C134.103 49.234 133.431 49.054 132.675 49.054C131.931 49.054 131.259 49.234 130.659 49.594C130.059 49.942 129.585 50.422 129.237 51.034C128.889 51.634 128.715 52.318 128.715 53.086C128.715 53.842 128.889 54.526 129.237 55.138C129.585 55.738 130.059 56.218 130.659 56.578C131.259 56.926 131.931 57.1 132.675 57.1ZM137.157 58C137.001 58 136.869 57.952 136.761 57.856C136.665 57.748 136.617 57.616 136.617 57.46V54.166L136.959 53.086H137.697V57.46C137.697 57.616 137.649 57.748 137.553 57.856C137.457 57.952 137.325 58 137.157 58ZM144.891 58.108C143.907 58.108 143.037 57.892 142.281 57.46C141.525 57.028 140.931 56.434 140.499 55.678C140.067 54.922 139.851 54.058 139.851 53.086C139.851 52.102 140.073 51.232 140.517 50.476C140.961 49.72 141.561 49.126 142.317 48.694C143.085 48.262 143.943 48.046 144.891 48.046C145.875 48.046 146.739 48.262 147.483 48.694C148.239 49.126 148.833 49.72 149.265 50.476C149.697 51.232 149.913 52.102 149.913 53.086L149.283 53.806C149.283 54.646 149.097 55.39 148.725 56.038C148.353 56.686 147.837 57.196 147.177 57.568C146.517 57.928 145.755 58.108 144.891 58.108ZM144.963 61.762C143.967 61.762 143.115 61.576 142.407 61.204C141.711 60.832 141.135 60.358 140.679 59.782C140.583 59.662 140.535 59.536 140.535 59.404C140.535 59.272 140.595 59.164 140.715 59.08C140.835 58.984 140.973 58.948 141.129 58.972C141.297 58.996 141.423 59.074 141.507 59.206C141.879 59.65 142.353 60.016 142.929 60.304C143.505 60.604 144.183 60.754 144.963 60.754C145.707 60.754 146.367 60.574 146.943 60.214C147.531 59.854 147.993 59.356 148.329 58.72C148.665 58.096 148.833 57.394 148.833 56.614V53.752L149.319 53.086H149.913V56.614C149.913 57.586 149.697 58.462 149.265 59.242C148.833 60.022 148.245 60.634 147.501 61.078C146.757 61.534 145.911 61.762 144.963 61.762ZM144.891 57.1C145.659 57.1 146.337 56.932 146.925 56.596C147.525 56.248 147.993 55.774 148.329 55.174C148.665 54.562 148.833 53.866 148.833 53.086C148.833 52.294 148.665 51.598 148.329 50.998C147.993 50.386 147.525 49.912 146.925 49.576C146.337 49.228 145.659 49.054 144.891 49.054C144.123 49.054 143.439 49.228 142.839 49.576C142.239 49.912 141.771 50.386 141.435 50.998C141.099 51.598 140.931 52.294 140.931 53.086C140.931 53.866 141.099 54.562 141.435 55.174C141.771 55.774 142.239 56.248 142.839 56.596C143.439 56.932 144.123 57.1 144.891 57.1ZM156.964 58.09C156.016 58.09 155.17 57.88 154.426 57.46C153.694 57.028 153.118 56.434 152.698 55.678C152.278 54.922 152.068 54.058 152.068 53.086C152.068 52.102 152.266 51.238 152.662 50.494C153.058 49.738 153.604 49.144 154.3 48.712C154.996 48.28 155.794 48.064 156.694 48.064C157.582 48.064 158.368 48.274 159.052 48.694C159.736 49.102 160.27 49.672 160.654 50.404C161.038 51.124 161.23 51.958 161.23 52.906C161.23 53.062 161.182 53.188 161.086 53.284C160.99 53.368 160.864 53.41 160.708 53.41H152.788V52.474H160.996L160.204 53.068C160.228 52.288 160.096 51.598 159.808 50.998C159.52 50.398 159.106 49.93 158.566 49.594C158.038 49.246 157.414 49.072 156.694 49.072C156.01 49.072 155.398 49.246 154.858 49.594C154.33 49.93 153.91 50.398 153.598 50.998C153.298 51.598 153.148 52.294 153.148 53.086C153.148 53.866 153.31 54.556 153.634 55.156C153.958 55.756 154.408 56.23 154.984 56.578C155.56 56.914 156.22 57.082 156.964 57.082C157.432 57.082 157.9 57.004 158.368 56.848C158.848 56.68 159.226 56.464 159.502 56.2C159.598 56.104 159.712 56.056 159.844 56.056C159.988 56.044 160.108 56.08 160.204 56.164C160.336 56.272 160.402 56.392 160.402 56.524C160.414 56.656 160.36 56.776 160.24 56.884C159.856 57.232 159.352 57.52 158.728 57.748C158.116 57.976 157.528 58.09 156.964 58.09Z" fill="white"/>
</svg>
