<svg width="24.000000" height="24.000000" viewBox="0 0 24 24" fill="none" xmlns="http://www.w3.org/2000/svg" xmlns:xlink="http://www.w3.org/1999/xlink">
	<desc>
			Created with Pixso.
	</desc>
	<defs/>
	<rect id="fluent:box-search-24-regular" width="24.000000" height="24.000000" fill="#FFFFFF" fill-opacity="0"/>
	<path id="Vector" d="M13.4087 2.51208C12.5054 2.14575 11.4946 2.14575 10.5908 2.51208L3.09277 5.55212C2.77002 5.68286 2.49316 5.9071 2.29883 6.19617C2.104 6.48511 2 6.82556 2 7.17407L2 11.6001C2.46582 11.3621 2.96973 11.1881 3.5 11.0901L3.5 7.75012L11.25 10.764L11.25 20.7761L11.4868 21.014C11.7041 21.2301 11.8521 21.489 11.9312 21.764C12.437 21.7731 12.9399 21.6796 13.4087 21.489L20.9067 18.4491C21.23 18.3182 21.5068 18.0938 21.7017 17.8046C21.896 17.5155 22 17.1747 22 16.826L22 7.17505C22 6.82666 21.896 6.48608 21.7012 6.19714C21.5063 5.9082 21.23 5.68384 20.9067 5.5531L13.4087 2.51208ZM11.1548 3.9021C11.6968 3.6825 12.3032 3.6825 12.8447 3.9021L19.437 6.5741L16.7671 7.6051L9.24072 4.6781L11.1548 3.9021ZM7.21484 5.50012L14.6909 8.40808L12.001 9.44604L4.59082 6.56409L7.21484 5.50012ZM20.3438 17.0601L12.8447 20.1001C12.8135 20.1124 12.7817 20.1241 12.75 20.1351L12.75 10.7651L20.5 7.77307L20.5 16.827C20.5 16.8768 20.4854 16.9255 20.4575 16.9669C20.4297 17.0083 20.3901 17.0414 20.3438 17.0601ZM4.5 21.0001C5.43457 21.0015 6.34619 20.7106 7.10693 20.1681L9.71973 22.78C9.78857 22.8538 9.87158 22.9128 9.96338 22.9539C10.0552 22.9949 10.1548 23.0168 10.2554 23.0187C10.356 23.0204 10.4561 23.002 10.5493 22.9642C10.6431 22.9265 10.7275 22.8704 10.7988 22.7991C10.8701 22.7279 10.9263 22.6431 10.9639 22.5497C11.002 22.4563 11.0205 22.3562 11.0186 22.2555C11.0166 22.1549 10.9946 22.0555 10.9536 21.9635C10.9126 21.8716 10.8535 21.7887 10.7798 21.7201L8.16797 19.1071C8.75244 18.2848 9.04346 17.29 8.99463 16.2825C8.9458 15.2749 8.56006 14.3129 7.89893 13.5509C7.23779 12.7891 6.33984 12.2712 5.34912 12.0809C4.3584 11.8905 3.33252 12.0386 2.43604 12.5012C1.54004 12.9639 0.824707 13.7142 0.40625 14.6321C-0.0126953 15.5498 -0.11084 16.5817 0.126953 17.5619C0.365234 18.5422 0.925781 19.4141 1.71875 20.0376C2.51172 20.6611 3.49121 21 4.5 21.0001ZM4.5 19.5001C3.7041 19.5001 2.94141 19.184 2.37842 18.6213C1.81592 18.0588 1.5 17.2958 1.5 16.5001C1.5 15.7045 1.81592 14.9414 2.37842 14.3788C2.94141 13.8162 3.7041 13.5001 4.5 13.5001C5.29541 13.5001 6.05859 13.8162 6.62109 14.3788C7.18408 14.9414 7.5 15.7045 7.5 16.5001C7.5 17.2958 7.18408 18.0588 6.62109 18.6213C6.05859 19.184 5.29541 19.5001 4.5 19.5001Z" fill="#A86039" fill-opacity="1.000000" fill-rule="evenodd"/>
</svg>
