<svg width="136" height="26" viewBox="0 0 136 26" fill="none" xmlns="http://www.w3.org/2000/svg">
<path d="M21.8055 11.0415H21V11H12V15H17.6515C16.827 17.3285 14.6115 19 12 19C8.6865 19 6 16.3135 6 13C6 9.6865 8.6865 7 12 7C13.5295 7 14.921 7.577 15.9805 8.5195L18.809 5.691C17.023 4.0265 14.634 3 12 3C6.4775 3 2 7.4775 2 13C2 18.5225 6.4775 23 12 23C17.5225 23 22 18.5225 22 13C22 12.3295 21.931 11.675 21.8055 11.0415Z" fill="#FFC107"/>
<path d="M3.15283 8.3455L6.43833 10.755C7.32733 8.554 9.48033 7 11.9998 7C13.5293 7 14.9208 7.577 15.9803 8.5195L18.8088 5.691C17.0228 4.0265 14.6338 3 11.9998 3C8.15883 3 4.82783 5.1685 3.15283 8.3455Z" fill="#FF3D00"/>
<path d="M12.0002 23C14.5832 23 16.9302 22.0115 18.7047 20.404L15.6097 17.785C14.5719 18.5742 13.3039 19.001 12.0002 19C9.39916 19 7.19066 17.3415 6.35866 15.027L3.09766 17.5395C4.75266 20.778 8.11366 23 12.0002 23Z" fill="#4CAF50"/>
<path d="M21.8055 11.0415H21V11H12V15H17.6515C17.2571 16.1082 16.5467 17.0766 15.608 17.7855L15.6095 17.7845L18.7045 20.4035C18.4855 20.6025 22 18 22 13C22 12.3295 21.931 11.675 21.8055 11.0415Z" fill="#1976D2"/>
<path d="M38.46 20.8C38.5267 19.96 38.56 18.8933 38.56 17.6V8.64C38.3867 8.64 38.1 8.68 37.7 8.76C37.3 8.82667 36.9467 8.89333 36.64 8.96L36.56 8.84L37.02 7H43.02C44.1133 7 45.06 7.15333 45.86 7.46C46.6733 7.76667 47.3 8.20667 47.74 8.78C48.18 9.34 48.4 10 48.4 10.76C48.4 11.4667 48.18 12.0933 47.74 12.64C47.3 13.1867 46.6867 13.6 45.9 13.88V13.96C46.8733 14.1733 47.6333 14.5733 48.18 15.16C48.7267 15.7467 49 16.4733 49 17.34C49 18.4733 48.5267 19.3667 47.58 20.02C46.6467 20.6733 45.3667 21 43.74 21H38.46V20.8ZM43.72 19.18C44.6133 19.18 45.32 18.98 45.84 18.58C46.36 18.18 46.62 17.6467 46.62 16.98C46.62 16.58 46.4933 16.2267 46.24 15.92C45.9867 15.6133 45.64 15.3733 45.2 15.2C44.76 15.0267 44.2667 14.94 43.72 14.94H40.78V19.18H43.72ZM43.28 13.06C43.8533 13.06 44.3533 12.9733 44.78 12.8C45.2067 12.6133 45.5333 12.3533 45.76 12.02C45.9867 11.6867 46.1 11.3 46.1 10.86C46.1 10.46 45.9867 10.1067 45.76 9.8C45.5333 9.48 45.2067 9.24 44.78 9.08C44.3533 8.90667 43.8533 8.82 43.28 8.82H40.78V13.06H43.28ZM65.8272 19.14L65.3672 21H61.4672V20.8C61.5339 19.96 61.5672 18.8933 61.5672 17.6V10.14L52.7672 21.66H52.3472V21.46C52.3605 20.8733 52.3805 20.3267 52.4072 19.82C52.4072 19.5267 52.4072 19.24 52.4072 18.96C52.4205 18.6667 52.4272 18.38 52.4272 18.1V8.64C52.2539 8.64 51.9672 8.68 51.5672 8.76C51.1672 8.82667 50.8139 8.89333 50.5072 8.96L50.4272 8.84L50.8872 7H54.7872V7.2C54.7205 8.25333 54.6872 9.32 54.6872 10.4V16.14L61.6672 7H63.9272V7.2C63.8605 8.6 63.8272 9.66667 63.8272 10.4V19.36C64.0005 19.36 64.2872 19.32 64.6872 19.24C65.0872 19.16 65.4405 19.0867 65.7472 19.02L65.8272 19.14ZM68.8506 20.8C68.9173 19.96 68.9506 18.8933 68.9506 17.6V8.64C68.7773 8.64 68.4906 8.68 68.0906 8.76C67.6906 8.82667 67.3373 8.89333 67.0306 8.96L66.9506 8.84L67.4106 7H75.4506L74.8306 5.88L74.8906 5.8L76.9906 5.82L78.2506 10.24L76.7906 10.72L76.7506 10.64C76.5106 10.16 76.2306 9.78 75.9106 9.5C75.5906 9.20667 75.1106 8.98667 74.4706 8.84C73.8306 8.68 72.9373 8.6 71.7906 8.6H71.2306V12.64H73.1706C74.4106 12.64 75.464 12.8067 76.3306 13.14C77.2106 13.4733 77.8773 13.9533 78.3306 14.58C78.784 15.2067 79.0106 15.9467 79.0106 16.8C79.0106 17.6667 78.784 18.4133 78.3306 19.04C77.8773 19.6667 77.2106 20.1533 76.3306 20.5C75.464 20.8333 74.4106 21 73.1706 21H68.8506V20.8ZM73.3106 19.22C74.364 19.22 75.184 19.0067 75.7706 18.58C76.3706 18.14 76.6706 17.54 76.6706 16.78C76.6706 16.06 76.3706 15.4933 75.7706 15.08C75.184 14.6667 74.364 14.46 73.3106 14.46H71.2306V19.22H73.3106ZM82.3663 20.8C82.4329 19.96 82.4663 18.8933 82.4663 17.6V8.64C82.2929 8.64 82.0063 8.68 81.6063 8.76C81.2063 8.82667 80.8529 8.89333 80.5463 8.96L80.4663 8.84L80.9263 7H86.2463C87.5396 7 88.6329 7.16667 89.5263 7.5C90.4196 7.83333 91.0863 8.32 91.5263 8.96C91.9796 9.58667 92.2063 10.3467 92.2063 11.24C92.2063 12.1333 91.9796 12.9 91.5263 13.54C91.0863 14.18 90.4196 14.6667 89.5263 15C88.6329 15.3333 87.5396 15.5 86.2463 15.5H84.7463V19.36C84.9596 19.36 85.3129 19.32 85.8063 19.24C86.2996 19.16 86.6996 19.0867 87.0063 19.02L87.0863 19.14L86.6263 21H82.3663V20.8ZM86.4863 13.78C87.6329 13.78 88.4929 13.5667 89.0663 13.14C89.6396 12.7133 89.9263 12.1067 89.9263 11.32C89.9263 10.5467 89.6396 9.94667 89.0663 9.52C88.4929 9.08 87.6329 8.86 86.4863 8.86H84.7463V13.78H86.4863ZM92.1217 20.78C92.2817 20.46 92.4217 20.16 92.5417 19.88C92.6751 19.6 92.8017 19.3333 92.9217 19.08C93.1751 18.56 93.4284 18.0067 93.6817 17.42C93.9484 16.82 94.2417 16.1267 94.5617 15.34L97.3017 8.72C97.0751 8.70667 96.8284 8.7 96.5617 8.7C96.2951 8.68667 96.0151 8.68 95.7217 8.68C95.6417 8.68 95.5617 8.68 95.4817 8.68C95.4017 8.68 95.3151 8.68 95.2217 8.68L95.8017 6.92C96.4017 6.96 97.0551 6.98667 97.7617 7C98.4684 7 99.0817 7 99.6017 7H100.502C101.062 8.54667 101.555 9.81333 101.982 10.8L104.502 16.66C104.635 16.9667 104.755 17.2467 104.862 17.5C105.102 18.0467 105.342 18.5933 105.582 19.14C105.835 19.6867 106.095 20.24 106.362 20.8V21H101.622L101.122 19.14L101.182 19.02L101.502 19.1C101.768 19.1667 102.048 19.2267 102.342 19.28C102.648 19.3333 102.902 19.36 103.102 19.36L102.082 16.82H96.0217C95.9817 16.9133 95.9417 17.0067 95.9017 17.1C95.8617 17.1933 95.8217 17.2867 95.7817 17.38C95.4084 18.3 95.1551 18.96 95.0217 19.36C95.1951 19.36 95.4284 19.3333 95.7217 19.28C96.0284 19.2267 96.3217 19.1667 96.6017 19.1C96.6551 19.0867 96.7084 19.0733 96.7617 19.06C96.8284 19.0467 96.8884 19.0333 96.9417 19.02L97.0217 19.14L96.5417 21H92.1217V20.78ZM101.342 14.98L99.9817 11.58C99.9684 11.5533 99.9551 11.5267 99.9417 11.5C99.9284 11.46 99.9151 11.4267 99.9017 11.4C99.6617 10.8 99.4617 10.3467 99.3017 10.04C99.1551 9.72 99.0017 9.46 98.8417 9.26L96.7417 14.98H101.342ZM117.15 10.94L117.09 10.8C116.917 10.3733 116.677 10.0067 116.37 9.7C116.077 9.38 115.65 9.12 115.09 8.92C114.53 8.72 113.81 8.62 112.93 8.62H112.79V19.36C113.017 19.36 113.403 19.32 113.95 19.24C114.51 19.16 114.93 19.0867 115.21 19.02L115.29 19.14L114.83 21H110.39V20.8C110.457 19.7467 110.49 18.68 110.49 17.6V8.62H110.35C109.47 8.62 108.75 8.72 108.19 8.92C107.63 9.12 107.197 9.38 106.89 9.7C106.597 10.02 106.363 10.3867 106.19 10.8L106.13 10.94L104.79 10.46L105.99 5.8H107.99L108.05 5.88L107.47 7H115.81L115.23 5.88L115.29 5.8H117.29L118.49 10.46L117.15 10.94ZM134.48 19.14L134.02 21H130.12V20.8C130.186 19.96 130.22 18.8933 130.22 17.6V10.14L121.42 21.66H121V21.46C121.013 20.8733 121.033 20.3267 121.06 19.82C121.06 19.5267 121.06 19.24 121.06 18.96C121.073 18.6667 121.08 18.38 121.08 18.1V8.64C120.906 8.64 120.62 8.68 120.22 8.76C119.82 8.82667 119.466 8.89333 119.16 8.96L119.08 8.84L119.54 7H123.44V7.2C123.373 8.25333 123.34 9.32 123.34 10.4V16.14L130.32 7H132.58V7.2C132.513 8.6 132.48 9.66667 132.48 10.4V19.36C132.653 19.36 132.94 19.32 133.34 19.24C133.74 19.16 134.093 19.0867 134.4 19.02L134.48 19.14Z" fill="#2F2F2F"/>
</svg>
