<svg width="125" height="26" viewBox="0 0 125 26" fill="none" xmlns="http://www.w3.org/2000/svg">
<path d="M21.8055 11.0415H21V11H12V15H17.6515C16.827 17.3285 14.6115 19 12 19C8.6865 19 6 16.3135 6 13C6 9.6865 8.6865 7 12 7C13.5295 7 14.921 7.577 15.9805 8.5195L18.809 5.691C17.023 4.0265 14.634 3 12 3C6.4775 3 2 7.4775 2 13C2 18.5225 6.4775 23 12 23C17.5225 23 22 18.5225 22 13C22 12.3295 21.931 11.675 21.8055 11.0415Z" fill="#FFC107"/>
<path d="M3.15283 8.3455L6.43833 10.755C7.32733 8.554 9.48033 7 11.9998 7C13.5293 7 14.9208 7.577 15.9803 8.5195L18.8088 5.691C17.0228 4.0265 14.6338 3 11.9998 3C8.15883 3 4.82783 5.1685 3.15283 8.3455Z" fill="#FF3D00"/>
<path d="M12.0002 23C14.5832 23 16.9302 22.0115 18.7047 20.404L15.6097 17.785C14.5719 18.5742 13.3039 19.001 12.0002 19C9.39916 19 7.19066 17.3415 6.35866 15.027L3.09766 17.5395C4.75266 20.778 8.11366 23 12.0002 23Z" fill="#4CAF50"/>
<path d="M21.8055 11.0415H21V11H12V15H17.6515C17.2571 16.1082 16.5467 17.0766 15.608 17.7855L15.6095 17.7845L18.7045 20.4035C18.4855 20.6025 22 18 22 13C22 12.3295 21.931 11.675 21.8055 11.0415Z" fill="#1976D2"/>
<path d="M43.5 21.3C42.2333 21.3 41.1 20.9933 40.1 20.38C39.1 19.7533 38.32 18.8933 37.76 17.8C37.2 16.6933 36.92 15.4533 36.92 14.08C36.92 12.5867 37.1933 11.2867 37.74 10.18C38.3 9.06 39.0733 8.2 40.06 7.6C41.0467 7 42.1667 6.7 43.42 6.7C44.1133 6.7 44.68 6.79333 45.12 6.98C45.5733 7.16667 46.02 7.40667 46.46 7.7C46.5533 7.76667 46.64 7.82667 46.72 7.88C46.8 7.92 46.8733 7.95333 46.94 7.98L46.26 6.52L46.34 6.4H48.36L49.64 11.42L48.02 12.02C47.66 11.3133 47.2733 10.7133 46.86 10.22C46.46 9.71333 45.98 9.32 45.42 9.04C44.8733 8.74667 44.24 8.6 43.52 8.6C42.6933 8.6 41.96 8.81333 41.32 9.24C40.6933 9.66667 40.2 10.2867 39.84 11.1C39.48 11.9133 39.3 12.8733 39.3 13.98C39.3 15.02 39.4867 15.9467 39.86 16.76C40.2333 17.5733 40.7533 18.2133 41.42 18.68C42.0867 19.1333 42.84 19.36 43.68 19.36C44.4933 19.36 45.22 19.1933 45.86 18.86C46.5133 18.5133 47.02 18.06 47.38 17.5C47.74 16.94 47.92 16.3467 47.92 15.72V15.04C47.3333 15.04 46.74 15.08 46.14 15.16C45.5533 15.24 45.0867 15.3267 44.74 15.42L44.64 15.3L45.12 13.44H46.7C47.1533 13.44 47.58 13.4333 47.98 13.42C48.3933 13.3933 48.78 13.3667 49.14 13.34C49.2733 13.3267 49.4067 13.32 49.54 13.32C49.6867 13.32 49.8267 13.3133 49.96 13.3L50.04 13.44C49.9733 14.5067 49.94 15.5933 49.94 16.7V19.36C50.1133 19.36 50.5467 19.2733 51.24 19.1C51.2933 19.0867 51.3467 19.0733 51.4 19.06C51.4533 19.0467 51.5067 19.0333 51.56 19.02L51.64 19.14L51.2 21H48.12V18.9C47.8533 19.3 47.52 19.68 47.12 20.04C46.7333 20.4 46.2333 20.7 45.62 20.94C45.0067 21.18 44.3 21.3 43.5 21.3ZM59.7459 21.3C58.3593 21.3 57.1126 20.9867 56.0059 20.36C54.9126 19.7333 54.0526 18.8667 53.4259 17.76C52.8126 16.6533 52.5059 15.4 52.5059 14C52.5059 12.6 52.8126 11.3467 53.4259 10.24C54.0526 9.13333 54.9126 8.26667 56.0059 7.64C57.1126 7.01333 58.3593 6.7 59.7459 6.7C61.1326 6.7 62.3726 7.01333 63.4659 7.64C64.5726 8.26667 65.4326 9.13333 66.0459 10.24C66.6726 11.3467 66.9859 12.6 66.9859 14C66.9859 15.4 66.6726 16.6533 66.0459 17.76C65.4326 18.8667 64.5726 19.7333 63.4659 20.36C62.3726 20.9867 61.1326 21.3 59.7459 21.3ZM59.7459 19.4C60.6793 19.4 61.5126 19.1733 62.2459 18.72C62.9793 18.2533 63.5526 17.6133 63.9659 16.8C64.3793 15.9733 64.5859 15.04 64.5859 14C64.5859 12.96 64.3793 12.0333 63.9659 11.22C63.5526 10.3933 62.9793 9.75333 62.2459 9.3C61.5126 8.83333 60.6793 8.6 59.7459 8.6C58.8126 8.6 57.9793 8.83333 57.2459 9.3C56.5126 9.75333 55.9393 10.3933 55.5259 11.22C55.1126 12.0333 54.9059 12.96 54.9059 14C54.9059 15.04 55.1126 15.9733 55.5259 16.8C55.9393 17.6133 56.5126 18.2533 57.2459 18.72C57.9793 19.1733 58.8126 19.4 59.7459 19.4ZM76.0545 21.3C74.6679 21.3 73.4212 20.9867 72.3145 20.36C71.2212 19.7333 70.3612 18.8667 69.7345 17.76C69.1212 16.6533 68.8145 15.4 68.8145 14C68.8145 12.6 69.1212 11.3467 69.7345 10.24C70.3612 9.13333 71.2212 8.26667 72.3145 7.64C73.4212 7.01333 74.6679 6.7 76.0545 6.7C77.4412 6.7 78.6812 7.01333 79.7745 7.64C80.8812 8.26667 81.7412 9.13333 82.3545 10.24C82.9812 11.3467 83.2945 12.6 83.2945 14C83.2945 15.4 82.9812 16.6533 82.3545 17.76C81.7412 18.8667 80.8812 19.7333 79.7745 20.36C78.6812 20.9867 77.4412 21.3 76.0545 21.3ZM76.0545 19.4C76.9879 19.4 77.8212 19.1733 78.5545 18.72C79.2879 18.2533 79.8612 17.6133 80.2745 16.8C80.6879 15.9733 80.8945 15.04 80.8945 14C80.8945 12.96 80.6879 12.0333 80.2745 11.22C79.8612 10.3933 79.2879 9.75333 78.5545 9.3C77.8212 8.83333 76.9879 8.6 76.0545 8.6C75.1212 8.6 74.2879 8.83333 73.5545 9.3C72.8212 9.75333 72.2479 10.3933 71.8345 11.22C71.4212 12.0333 71.2145 12.96 71.2145 14C71.2145 15.04 71.4212 15.9733 71.8345 16.8C72.2479 17.6133 72.8212 18.2533 73.5545 18.72C74.2879 19.1733 75.1212 19.4 76.0545 19.4ZM91.7031 21.3C90.4365 21.3 89.3031 20.9933 88.3031 20.38C87.3031 19.7533 86.5231 18.8933 85.9631 17.8C85.4031 16.6933 85.1231 15.4533 85.1231 14.08C85.1231 12.5867 85.3965 11.2867 85.9431 10.18C86.5031 9.06 87.2765 8.2 88.2631 7.6C89.2498 7 90.3698 6.7 91.6231 6.7C92.3165 6.7 92.8831 6.79333 93.3231 6.98C93.7765 7.16667 94.2231 7.40667 94.6631 7.7C94.7565 7.76667 94.8431 7.82667 94.9231 7.88C95.0031 7.92 95.0765 7.95333 95.1431 7.98L94.4631 6.52L94.5431 6.4H96.5631L97.8431 11.42L96.2231 12.02C95.8631 11.3133 95.4765 10.7133 95.0631 10.22C94.6631 9.71333 94.1831 9.32 93.6231 9.04C93.0765 8.74667 92.4431 8.6 91.7231 8.6C90.8965 8.6 90.1631 8.81333 89.5231 9.24C88.8965 9.66667 88.4031 10.2867 88.0431 11.1C87.6831 11.9133 87.5031 12.8733 87.5031 13.98C87.5031 15.02 87.6898 15.9467 88.0631 16.76C88.4365 17.5733 88.9565 18.2133 89.6231 18.68C90.2898 19.1333 91.0431 19.36 91.8831 19.36C92.6965 19.36 93.4231 19.1933 94.0631 18.86C94.7165 18.5133 95.2231 18.06 95.5831 17.5C95.9431 16.94 96.1231 16.3467 96.1231 15.72V15.04C95.5365 15.04 94.9431 15.08 94.3431 15.16C93.7565 15.24 93.2898 15.3267 92.9431 15.42L92.8431 15.3L93.3231 13.44H94.9031C95.3565 13.44 95.7831 13.4333 96.1831 13.42C96.5965 13.3933 96.9831 13.3667 97.3431 13.34C97.4765 13.3267 97.6098 13.32 97.7431 13.32C97.8898 13.32 98.0298 13.3133 98.1631 13.3L98.2431 13.44C98.1765 14.5067 98.1431 15.5933 98.1431 16.7V19.36C98.3165 19.36 98.7498 19.2733 99.4431 19.1C99.4965 19.0867 99.5498 19.0733 99.6031 19.06C99.6565 19.0467 99.7098 19.0333 99.7631 19.02L99.8431 19.14L99.4031 21H96.3231V18.9C96.0565 19.3 95.7231 19.68 95.3231 20.04C94.9365 20.4 94.4365 20.7 93.8231 20.94C93.2098 21.18 92.5031 21.3 91.7031 21.3ZM108.744 22.12L109.464 21H102.444V20.8C102.511 19.92 102.544 18.8533 102.544 17.6V8.64C102.398 8.64 102.131 8.67333 101.744 8.74C101.371 8.80667 100.998 8.88 100.624 8.96L100.544 8.84L101.004 7H104.944V7.2C104.878 8.37333 104.844 9.44 104.844 10.4V19.16H106.104C107.158 19.16 107.998 19.0867 108.624 18.94C109.264 18.78 109.738 18.5733 110.044 18.32C110.364 18.0667 110.611 17.76 110.784 17.4L111.024 16.92L112.264 17.38L110.804 22.2H108.804L108.744 22.12ZM121.236 22.12L121.936 21H114.456V20.8C114.523 19.96 114.556 18.8933 114.556 17.6V8.64C114.383 8.64 114.096 8.68 113.696 8.76C113.296 8.82667 112.943 8.89333 112.636 8.96L112.556 8.84L113.016 7H120.756L120.176 5.88L120.236 5.8H122.236L123.416 10.36L122.256 10.78L122.216 10.7C121.963 10.18 121.656 9.78 121.296 9.5C120.949 9.20667 120.449 8.98667 119.796 8.84C119.156 8.69333 118.276 8.62 117.156 8.62H116.756V13.1H118.696C118.723 13.1 118.736 13.0867 118.736 13.06V11.9H120.556L120.176 16.34H118.736V14.94C118.736 14.9133 118.723 14.9 118.696 14.9H116.756V19.3H117.316C118.703 19.3 119.796 19.2267 120.596 19.08C121.396 18.92 121.989 18.7 122.376 18.42C122.776 18.1267 123.103 17.7333 123.356 17.24L123.396 17.18L123.536 16.9L124.756 17.36L123.296 22.2H121.296L121.236 22.12Z" fill="#2F2F2F"/>
</svg>
