<svg width="24.000000" height="24.000000" viewBox="0 0 24 24" fill="none" xmlns="http://www.w3.org/2000/svg" xmlns:xlink="http://www.w3.org/1999/xlink">
	<desc>
			Created with Pixso.
	</desc>
	<defs/>
	<rect id="lucide:history" width="24.000000" height="24.000000" fill="#FFFFFF" fill-opacity="0"/>
	<path id="Vector" d="M3 12C3 13.78 3.52783 15.5201 4.5166 17.0001C5.50586 18.4802 6.91113 19.6338 8.55566 20.3149C10.2002 20.9961 12.0098 21.1743 13.7559 20.827C15.5015 20.4799 17.1055 19.6227 18.3638 18.364C19.6226 17.1053 20.48 15.5016 20.8271 13.7559C21.1743 12.01 20.9961 10.2004 20.3149 8.55591C19.6338 6.91125 18.48 5.50574 17 4.51672C15.52 3.52783 13.7803 3 12 3C9.48389 3.00952 7.06885 3.99121 5.25977 5.73999L3 8" stroke="#A86039" stroke-opacity="1.000000" stroke-width="2.000000" stroke-linejoin="round" stroke-linecap="round"/>
	<path id="Vector" d="M3 3L3 8L8 8M12 7L12 12L16 14" stroke="#A86039" stroke-opacity="1.000000" stroke-width="2.000000" stroke-linejoin="round"/>
</svg>
