<svg width="23.659180" height="23.660889" viewBox="0 0 23.6592 23.6609" fill="none" xmlns="http://www.w3.org/2000/svg" xmlns:xlink="http://www.w3.org/1999/xlink">
	<desc>
			Created with Pixso.
	</desc>
	<defs/>
	<path id="Vector" d="M11.8286 0.857178C12.5752 0.857178 13.2993 1.1145 13.8789 1.58594L14.4497 2.05054L15.1748 1.93396C15.9121 1.81519 16.6685 1.95422 17.3154 2.32764C17.9624 2.70117 18.4609 3.28613 18.7271 3.98425L18.9873 4.66992L19.6748 4.93225C20.373 5.198 20.9585 5.69629 21.3325 6.34338C21.7061 6.99036 21.8457 7.74646 21.7271 8.48425L21.6104 9.20935L22.0732 9.78015C22.5444 10.3595 22.8018 11.0836 22.8018 11.8304C22.8018 12.5774 22.5444 13.3014 22.0732 13.8807L21.6104 14.4517L21.7271 15.1768C21.8457 15.9143 21.7065 16.6703 21.333 17.3173C20.9595 17.9642 20.3745 18.4628 19.6768 18.7288L18.9907 18.9911L18.7285 19.6768C18.4624 20.3749 17.9639 20.9598 17.3169 21.3333C16.6699 21.7068 15.9141 21.8458 15.1768 21.7271L14.4512 21.6105L13.8804 22.0751C13.3013 22.5464 12.5771 22.8038 11.8301 22.8038C11.0835 22.8038 10.3594 22.5464 9.77979 22.0751L9.20898 21.6122L8.48389 21.7271C7.74658 21.8458 6.99072 21.7068 6.34375 21.3333C5.69629 20.9598 5.19824 20.3749 4.93213 19.6768L4.66943 18.9911L3.98389 18.7288C3.28613 18.4628 2.70068 17.9642 2.32764 17.3173C1.9541 16.6703 1.81494 15.9143 1.93359 15.1768L2.05029 14.4517L1.58545 13.8807C1.11426 13.3014 0.856934 12.5774 0.856934 11.8304C0.856934 11.0836 1.11426 10.3595 1.58545 9.78015L2.04834 9.20935L1.93359 8.48425C1.81494 7.74683 1.95361 6.99109 2.32666 6.34412C2.69971 5.69714 3.28467 5.19861 3.98242 4.93225L4.66797 4.67163L4.93018 3.98425C5.1958 3.28589 5.69434 2.70044 6.34131 2.32666C6.98828 1.95288 7.74463 1.8136 8.48242 1.93225L9.20752 2.04883L9.77832 1.58594C10.3574 1.1145 11.0815 0.857178 11.8286 0.857178ZM7.54297 16.1162L16.1143 7.5448" stroke="#A86039" stroke-opacity="1.000000" stroke-width="1.714286" stroke-linejoin="round" stroke-linecap="round"/>
	<path id="Vector" d="M9.00586 9.00793C9.1665 8.84717 9.25684 8.62915 9.25684 8.40186C9.25684 8.17444 9.1665 7.95642 9.00586 7.79578C8.84473 7.63501 8.62695 7.54468 8.39941 7.54468C8.17236 7.54468 7.9541 7.63501 7.79346 7.79578C7.63281 7.95642 7.54248 8.17444 7.54248 8.40186C7.54248 8.62915 7.63281 8.84717 7.79346 9.00793C7.9541 9.1687 8.17236 9.25891 8.39941 9.25891C8.62695 9.25891 8.84473 9.1687 9.00586 9.00793ZM15.8628 15.8651C16.0234 15.7043 16.1138 15.4863 16.1138 15.2589C16.1138 15.0316 16.0234 14.8136 15.8628 14.6528C15.7021 14.4921 15.4839 14.4019 15.2568 14.4019C15.0293 14.4019 14.8115 14.4921 14.6509 14.6528C14.4897 14.8136 14.3994 15.0316 14.3994 15.2589C14.3994 15.4863 14.4897 15.7043 14.6509 15.8651C14.8115 16.0258 15.0293 16.1161 15.2568 16.1161C15.4839 16.1161 15.7021 16.0258 15.8628 15.8651Z" stroke="#A86039" stroke-opacity="1.000000" stroke-width="1.714286" stroke-linejoin="round"/>
</svg>
