<svg width="30.000000" height="30.000000" viewBox="0 0 30 30" fill="none" xmlns="http://www.w3.org/2000/svg" xmlns:xlink="http://www.w3.org/1999/xlink">
	<desc>
			Created with Pixso.
	</desc>
	<defs/>
	<rect id="Main button/ph:warning" width="30.000000" height="30.000000" fill="#FFFFFF" fill-opacity="0"/>
	<path id="Vector" d="M27.75 22.0419L17.502 4.24463C17.2456 3.80859 16.8799 3.44702 16.4414 3.1958C16.0024 2.9447 15.5054 2.8125 15 2.8125C14.4941 2.8125 13.9971 2.9447 13.5586 3.1958C13.1196 3.44702 12.7539 3.80859 12.498 4.24463L2.25 22.0419C2.00342 22.4636 1.87354 22.9432 1.87354 23.4318C1.87354 23.9202 2.00342 24.3998 2.25 24.8215C2.50244 25.2603 2.86768 25.6238 3.30713 25.8748C3.74707 26.1259 4.24561 26.2554 4.75195 26.2501L25.248 26.2501C25.7539 26.2549 26.252 26.1252 26.6909 25.8741C27.1304 25.6232 27.4946 25.2599 27.7476 24.8215C27.9941 24.4 28.1245 23.9205 28.125 23.432C28.1255 22.9436 27.9956 22.4639 27.75 22.0419ZM26.1245 23.8829C26.0352 24.0353 25.9067 24.1611 25.7529 24.2477C25.5986 24.3341 25.4243 24.3782 25.248 24.3751L4.75195 24.3751C4.5752 24.3782 4.40088 24.3341 4.24658 24.2477C4.09277 24.1611 3.96436 24.0353 3.875 23.8829C3.79443 23.7458 3.75146 23.5897 3.75146 23.4305C3.75146 23.2714 3.79443 23.1152 3.875 22.9781L14.123 5.18091C14.2144 5.0293 14.3433 4.90381 14.4971 4.81665C14.6514 4.72949 14.8252 4.68372 15.002 4.68372C15.1792 4.68372 15.353 4.72949 15.5068 4.81665C15.6611 4.90381 15.79 5.0293 15.8809 5.18091L26.1289 22.9781C26.2095 23.1156 26.251 23.2721 26.2505 23.4312C26.2495 23.5903 26.2061 23.7463 26.1245 23.8829ZM14.0625 16.8751L14.0625 12.1876C14.0625 11.939 14.1611 11.7004 14.3369 11.5247C14.5127 11.3489 14.751 11.2501 15 11.2501C15.2485 11.2501 15.4868 11.3489 15.6626 11.5247C15.8384 11.7004 15.9375 11.939 15.9375 12.1876L15.9375 16.8751C15.9375 17.1238 15.8384 17.3622 15.6626 17.538C15.4868 17.7137 15.2485 17.8126 15 17.8126C14.751 17.8126 14.5127 17.7137 14.3369 17.538C14.1611 17.3622 14.0625 17.1238 14.0625 16.8751ZM16.4062 21.0939C16.4062 21.3719 16.3237 21.6438 16.1689 21.8751C16.0146 22.1063 15.7949 22.2866 15.5381 22.3931C15.2808 22.4995 14.998 22.5273 14.7256 22.473C14.4526 22.4188 14.2021 22.2849 14.0054 22.0881C13.8086 21.8915 13.6748 21.641 13.6206 21.3682C13.5664 21.0953 13.5942 20.8126 13.7007 20.5557C13.8071 20.2987 13.9873 20.0791 14.2188 19.9246C14.4497 19.77 14.7217 19.6876 15 19.6876C15.3726 19.6876 15.7305 19.8357 15.9941 20.0995C16.2578 20.3632 16.4062 20.7208 16.4062 21.0939Z" fill="#E13D3D" fill-opacity="1.000000" fill-rule="nonzero"/>
</svg>
