<svg width="24.000000" height="24.000000" viewBox="0 0 24 24" fill="none" xmlns="http://www.w3.org/2000/svg" xmlns:xlink="http://www.w3.org/1999/xlink">
	<desc>
			Created with Pixso.
	</desc>
	<defs/>
	<rect id="Arrow up" width="24.000000" height="24.000000" transform=" rotate(-0.000000)" fill="#FFFFFF" fill-opacity="0"/>
	<path id="Vector" d="M11.1724 7.23265L3.20728 15.5921C3.07446 15.7316 3.00024 15.9169 3.00024 16.1096C3.00024 16.3024 3.07446 16.4877 3.20728 16.6272L3.21631 16.6362C3.28076 16.704 3.3584 16.758 3.44434 16.795C3.53052 16.8319 3.62305 16.8509 3.71655 16.8509C3.8103 16.8509 3.90283 16.8319 3.98877 16.795C4.07495 16.758 4.15234 16.704 4.2168 16.6362L11.7168 8.76414L19.2139 16.6362C19.2783 16.704 19.356 16.758 19.4419 16.795C19.5278 16.8319 19.6206 16.8509 19.7141 16.8509C19.8076 16.8509 19.9004 16.8319 19.9863 16.795C20.0723 16.758 20.1499 16.704 20.2144 16.6362L20.2234 16.6272C20.3564 16.4877 20.4304 16.3024 20.4304 16.1096C20.4304 15.9169 20.3564 15.7316 20.2234 15.5921L12.2583 7.23265C12.1882 7.15913 12.104 7.1006 12.0107 7.06061C11.9175 7.02061 11.8169 7 11.7153 7C11.6138 7 11.5134 7.02061 11.4199 7.06061C11.3267 7.1006 11.2424 7.15913 11.1724 7.23265Z" fill="#2F2F2F" fill-opacity="1.000000" fill-rule="nonzero"/>
</svg>
