<svg width="24.000000" height="24.000000" viewBox="0 0 24 24" fill="none" xmlns="http://www.w3.org/2000/svg" xmlns:xlink="http://www.w3.org/1999/xlink">
	<desc>
			Created with Pixso.
	</desc>
	<defs/>
	<rect id="Arrow down" width="24.000000" height="24.000000" transform="translate(24.000000 24.000000) rotate(-179.999985)" fill="#FFFFFF" fill-opacity="0"/>
	<path id="Vector" d="M11.8276 16.7673L19.7926 8.40785C19.9256 8.26837 19.9998 8.08305 19.9998 7.89035C19.9998 7.69765 19.9256 7.51233 19.7926 7.37285L19.7836 7.36385C19.7192 7.29599 19.6415 7.24197 19.5555 7.20505C19.4695 7.16812 19.377 7.14909 19.2834 7.14909C19.1898 7.14909 19.0972 7.16812 19.0112 7.20505C18.9252 7.24197 18.8476 7.29599 18.7831 7.36385L11.2831 15.2359L3.78613 7.36385C3.72168 7.29599 3.64404 7.24197 3.55804 7.20505C3.47205 7.16812 3.37946 7.14908 3.28589 7.14908C3.19226 7.14908 3.09967 7.16812 3.01367 7.20505C2.92767 7.24197 2.8501 7.29599 2.78564 7.36385L2.77661 7.37285C2.64368 7.51233 2.56946 7.69765 2.56946 7.89035C2.56946 8.08305 2.64368 8.26837 2.77661 8.40785L10.7416 16.7673C10.8116 16.8409 10.8959 16.8994 10.9893 16.9394C11.0826 16.9794 11.183 17 11.2846 17C11.3862 17 11.4866 16.9794 11.58 16.9394C11.6733 16.8994 11.7576 16.8409 11.8276 16.7673Z" fill="#2F2F2F" fill-opacity="1.000000" fill-rule="nonzero"/>
</svg>
