<svg width="24.000000" height="24.000000" viewBox="0 0 24 24" fill="none" xmlns="http://www.w3.org/2000/svg" xmlns:xlink="http://www.w3.org/1999/xlink">
	<desc>
			Created with Pixso.
	</desc>
	<defs/>
	<rect id="teenyicons:bag-alt-outline" width="24.000000" height="24.000000" fill="#FFFFFF" fill-opacity="0"/>
	<path id="Vector" d="M16.8 3.19971L16.8 7.19971C16.8 8.47266 16.2943 9.69385 15.3941 10.5938C14.494 11.4941 13.2731 12 12 12C10.727 12 9.50607 11.4941 8.60593 10.5938C7.70575 9.69385 7.20001 8.47266 7.20001 7.19971L7.20001 3.19971M2.40002 21.5996C2.40002 22.0239 2.5686 22.4312 2.86865 22.731C3.1687 23.0312 3.57568 23.1997 4.00003 23.1997L20 23.1997C20.4244 23.1997 20.8313 23.0312 21.1314 22.731C21.4315 22.4312 21.6 22.0239 21.6 21.5996L21.6 2.3999C21.6 1.97559 21.4315 1.56836 21.1314 1.26855C20.8313 0.968262 20.4244 0.799805 20 0.799805L4.00003 0.799805C3.57568 0.799805 3.1687 0.968262 2.86865 1.26855C2.5686 1.56836 2.40002 1.97559 2.40002 2.3999L2.40002 21.5996Z" stroke="#2F2F2F" stroke-opacity="1.000000" stroke-width="1.600000"/>
</svg>
