<svg width="24.000000" height="24.000000" viewBox="0 0 24 24" fill="none" xmlns="http://www.w3.org/2000/svg" xmlns:xlink="http://www.w3.org/1999/xlink">
	<desc>
			Created with Pixso.
	</desc>
	<defs/>
	<rect id="teenyicons:bag-alt-outline" width="24.000000" height="24.000000" fill="#FFFFFF" fill-opacity="0"/>
	<path id="Vector" d="M16.8 3.2L16.8 7.2C16.8 8.47304 16.2943 9.69394 15.3942 10.5941C14.494 11.4943 13.2731 12 12 12C10.7269 12 9.5061 11.4943 8.60596 10.5941C7.70569 9.69394 7.20007 8.47304 7.20007 7.2L7.20007 3.2M2.40002 21.6C2.40002 22.0243 2.5686 22.4313 2.86865 22.7314C3.1687 23.0314 3.57568 23.2 4 23.2L20 23.2C20.4243 23.2 20.8313 23.0314 21.1313 22.7314C21.4314 22.4313 21.6 22.0243 21.6 21.6L21.6 2.4C21.6 1.97565 21.4314 1.56869 21.1313 1.26863C20.8313 0.968571 20.4243 0.799999 20 0.799999L4 0.799999C3.57568 0.799999 3.1687 0.968571 2.86865 1.26863C2.5686 1.56869 2.40002 1.97565 2.40002 2.4L2.40002 21.6Z" stroke="#FFFFFF" stroke-opacity="1.000000" stroke-width="1.600000"/>
</svg>
