<svg width="24.000000" height="24.000000" viewBox="0 0 24 24" fill="none" xmlns="http://www.w3.org/2000/svg" xmlns:xlink="http://www.w3.org/1999/xlink">
	<desc>
			Created with Pixso.
	</desc>
	<defs/>
	<rect id="akar-icons:person" width="24.000000" height="24.000000" fill="#FFFFFF" fill-opacity="0"/>
	<path id="Vector" d="M12 12C9.23853 12 7 9.76143 7 7C7 4.23857 9.23853 2 12 2C14.7615 2 17 4.23857 17 7C17 9.76143 14.7615 12 12 12Z" stroke="#FFFFFF" stroke-opacity="1.000000" stroke-width="2.000000"/>
	<path id="Vector" d="M17 14L17.3521 14C18.0831 14.0002 18.7889 14.2674 19.337 14.7513C19.885 15.2352 20.2374 15.9026 20.328 16.628L20.7191 19.752C20.7543 20.0334 20.7291 20.3191 20.6455 20.5901C20.5618 20.8611 20.4214 21.1112 20.2336 21.3238C20.046 21.5364 19.8152 21.7066 19.5566 21.8232C19.2981 21.9398 19.0177 22.0001 18.734 22L5.26611 22C4.98242 22.0001 4.70203 21.9398 4.44348 21.8232C4.18494 21.7066 3.9541 21.5364 3.76648 21.3238C3.57874 21.1112 3.43835 20.8611 3.35461 20.5901C3.271 20.3191 3.24585 20.0334 3.28101 19.752L3.67102 16.628C3.76172 15.9022 4.1145 15.2346 4.66284 14.7506C5.2113 14.2667 5.9176 13.9997 6.64905 14L7 14" stroke="#FFFFFF" stroke-opacity="1.000000" stroke-width="2.000000" stroke-linejoin="round" stroke-linecap="round"/>
</svg>
