<svg width="24.000000" height="24.000000" viewBox="0 0 24 24" fill="none" xmlns="http://www.w3.org/2000/svg" xmlns:xlink="http://www.w3.org/1999/xlink">
	<desc>
			Created with Pixso.
	</desc>
	<defs/>
	<rect id="akar-icons:person" width="24.000000" height="24.000000" fill="#FFFFFF" fill-opacity="0"/>
	<path id="Vector" d="M12 12C9.23859 12 7 9.76123 7 7C7 4.23877 9.23859 2 12 2C14.7614 2 17 4.23877 17 7C17 9.76123 14.7614 12 12 12Z" stroke="#2F2F2F" stroke-opacity="1.000000" stroke-width="2.000000"/>
	<path id="Vector" d="M17.0001 14L17.3521 14C18.0831 14 18.789 14.2676 19.337 14.7515C19.885 15.2354 20.2374 15.9023 20.3281 16.6279L20.7191 19.752C20.7542 20.0332 20.7291 20.3193 20.6454 20.5903C20.5618 20.8613 20.4214 21.1113 20.2337 21.3237C20.046 21.5366 19.8152 21.7065 19.5566 21.8232C19.2981 21.9399 19.0177 22 18.7341 22L5.26605 22C4.98245 22 4.70206 21.9399 4.44351 21.8232C4.18497 21.7065 3.95416 21.5366 3.76645 21.3237C3.5787 21.1113 3.43835 20.8613 3.35468 20.5903C3.271 20.3193 3.24588 20.0332 3.28107 19.752L3.67105 16.6279C3.76175 15.9023 4.11447 15.2344 4.6629 14.7505C5.2113 14.2666 5.91763 13.9995 6.64905 14L7.00006 14" stroke="#2F2F2F" stroke-opacity="1.000000" stroke-width="2.000000" stroke-linejoin="round" stroke-linecap="round"/>
</svg>
