<svg width="24.001343" height="24.000301" viewBox="0 0 24.0013 24.0003" fill="none" xmlns="http://www.w3.org/2000/svg" xmlns:xlink="http://www.w3.org/1999/xlink">
	<desc>
			Created with Pixso.
	</desc>
	<defs/>
	<rect id="bi:search" width="24.000000" height="24.000000" transform="translate(0.001343 0.000000)" fill="#FFFFFF" fill-opacity="0"/>
	<path id="Vector" d="M17.6144 15.516C19.0668 13.534 19.7173 11.0767 19.4358 8.63572C19.1543 6.19471 17.9614 3.95 16.0959 2.35069C14.2305 0.751381 11.83 -0.0845947 9.37463 0.0100136C6.91919 0.104622 4.59009 1.12284 2.85327 2.86096C1.11633 4.59908 0.0998535 6.92891 0.00695801 9.38435C-0.0859375 11.8398 0.751831 14.2397 2.35242 16.1041C3.95312 17.9684 6.19861 19.1596 8.63989 19.4394C11.0811 19.7192 13.538 19.0669 15.5188 17.613L15.5173 17.613C15.5624 17.673 15.6104 17.73 15.6643 17.7855L21.4393 23.5605C21.7206 23.842 22.1022 24.0002 22.5001 24.0003C22.8979 24.0004 23.2797 23.8425 23.5612 23.5612C23.8425 23.28 24.0007 22.8984 24.0009 22.5005C24.0011 22.1026 23.8431 21.721 23.5619 21.4395L17.7869 15.6645C17.7333 15.6102 17.6755 15.5616 17.6144 15.516ZM18.0013 9.75C18.0013 10.8334 17.788 11.9062 17.3734 12.9071C16.9587 13.9081 16.3511 14.8175 15.585 15.5836C14.8188 16.3497 13.9094 16.9574 12.9084 17.372C11.9076 17.7866 10.8347 18 9.75134 18C8.66797 18 7.59509 17.7866 6.59424 17.372C5.59326 16.9574 4.68384 16.3497 3.91772 15.5836C3.15161 14.8175 2.54395 13.9081 2.12939 12.9071C1.71472 11.9062 1.50134 10.8334 1.50134 9.75C1.50134 7.56196 2.37048 5.46354 3.91772 3.91637C5.46484 2.36919 7.56335 1.5 9.75134 1.5C11.9393 1.5 14.0378 2.36919 15.585 3.91637C17.1322 5.46354 18.0013 7.56196 18.0013 9.75Z" fill="#FFFFFF" fill-opacity="1.000000" fill-rule="nonzero"/>
</svg>
