<svg width="24.001343" height="24.000488" viewBox="0 0 24.0013 24.0005" fill="none" xmlns="http://www.w3.org/2000/svg" xmlns:xlink="http://www.w3.org/1999/xlink">
	<desc>
			Created with Pixso.
	</desc>
	<defs/>
	<rect id="bi:search" width="24.000000" height="24.000000" transform="translate(0.001343 0.000000)" fill="#FFFFFF" fill-opacity="0"/>
	<path id="Vector" d="M17.6143 15.5161C19.0668 13.5342 19.7173 11.0767 19.4358 8.63574C19.1543 6.19482 17.9615 3.9502 16.096 2.35107C14.2305 0.751465 11.83 -0.0844727 9.3746 0.0102539C6.91922 0.10498 4.59012 1.12305 2.85324 2.86133C1.11636 4.59912 0.099823 6.9292 0.00695801 9.38428C-0.0858765 11.8398 0.751801 14.2397 2.35245 16.104C3.95309 17.9688 6.19867 19.1597 8.63986 19.4395C11.0811 19.7192 13.5379 19.0669 15.5189 17.6133L15.5173 17.6133C15.5623 17.6733 15.6104 17.73 15.6643 17.7856L21.4393 23.5605C21.7206 23.8423 22.1022 24.0005 22.5001 24.0005C22.898 24.0005 23.2796 23.8428 23.5611 23.5615C23.8426 23.2803 24.0008 22.8984 24.0009 22.5005C24.001 22.1025 23.8431 21.7212 23.5619 21.4395L17.7868 15.6646C17.7332 15.6104 17.6755 15.5615 17.6143 15.5161ZM18.0013 9.75C18.0013 10.8335 17.788 11.9062 17.3734 12.9072C16.9587 13.9082 16.3511 14.8179 15.585 15.584C14.8189 16.3501 13.9094 16.9575 12.9085 17.3721C11.9076 17.7866 10.8347 18 9.75134 18C8.66794 18 7.59515 17.7866 6.59421 17.3721C5.59326 16.9575 4.68381 16.3501 3.91772 15.584C3.15164 14.8179 2.54395 13.9082 2.12933 12.9072C1.71475 11.9062 1.50134 10.8335 1.50134 9.75C1.50134 7.56201 2.37054 5.46387 3.91772 3.9165C5.4649 2.36914 7.56332 1.5 9.75134 1.5C11.9394 1.5 14.0378 2.36914 15.585 3.9165C17.1321 5.46387 18.0013 7.56201 18.0013 9.75Z" fill="#2F2F2F" fill-opacity="1.000000" fill-rule="nonzero"/>
</svg>
