<svg width="24.000000" height="24.000000" viewBox="0 0 24 24" fill="none" xmlns="http://www.w3.org/2000/svg" xmlns:xlink="http://www.w3.org/1999/xlink">
	<desc>
			Created with Pixso.
	</desc>
	<defs/>
	<rect id="Main button/ph:warning" width="24.000000" height="24.000000" fill="#FFFFFF" fill-opacity="0"/>
	<path id="Vector" d="M22.2001 17.6333L14.0016 3.39551C13.7968 3.04688 13.5043 2.75781 13.1532 2.55664C12.8021 2.35596 12.4045 2.25 12 2.25C11.5955 2.25 11.198 2.35596 10.8469 2.55664C10.4958 2.75781 10.2034 3.04688 9.99841 3.39551L1.80005 17.6333C1.60291 17.9707 1.49902 18.3545 1.49902 18.7456C1.49902 19.1362 1.60291 19.52 1.80005 19.8574C2.00232 20.208 2.29431 20.499 2.646 20.6997C2.99768 20.9009 3.39661 21.0044 3.80164 21L20.1985 21C20.6031 21.0039 21.0016 20.8999 21.353 20.6992C21.7043 20.4985 21.9961 20.208 22.1981 19.8574C22.3955 19.52 22.4998 19.1362 22.5001 18.7456C22.5005 18.355 22.3969 17.9712 22.2001 17.6333ZM20.8997 19.1064C20.8282 19.228 20.7256 19.3291 20.6024 19.3979C20.4791 19.4673 20.3397 19.5024 20.1985 19.5L3.80164 19.5C3.66028 19.5024 3.52087 19.4673 3.39771 19.3979C3.27441 19.3291 3.17175 19.228 3.10034 19.1064C3.03564 18.9966 3.00146 18.8716 3.00146 18.7446C3.00146 18.6172 3.03564 18.4922 3.10034 18.3823L11.2988 4.14453C11.3717 4.02344 11.4747 3.92285 11.598 3.85352C11.7212 3.78369 11.8604 3.74707 12.002 3.74707C12.1434 3.74707 12.2826 3.78369 12.4059 3.85352C12.5291 3.92285 12.6321 4.02344 12.7051 4.14453L20.9034 18.3823C20.9677 18.4927 21.0011 18.6177 21.0005 18.7451C20.9999 18.8721 20.965 18.9971 20.8997 19.1064ZM11.25 13.5L11.25 9.75C11.25 9.55127 11.3291 9.36035 11.4697 9.21973C11.6104 9.0791 11.8011 9 12 9C12.199 9 12.3896 9.0791 12.5304 9.21973C12.671 9.36035 12.75 9.55127 12.75 9.75L12.75 13.5C12.75 13.6987 12.671 13.8896 12.5304 14.0303C12.3896 14.1709 12.199 14.25 12 14.25C11.8011 14.25 11.6104 14.1709 11.4697 14.0303C11.3291 13.8896 11.25 13.6987 11.25 13.5ZM13.125 16.875C13.125 17.0977 13.0591 17.3149 12.9354 17.5C12.8118 17.6851 12.6361 17.8291 12.4305 17.9146C12.225 17.9995 11.9988 18.022 11.7805 17.9785C11.5624 17.9351 11.3618 17.8281 11.2046 17.6704C11.0472 17.5132 10.9401 17.313 10.8966 17.0947C10.8533 16.8765 10.8755 16.6499 10.9607 16.4443C11.0458 16.2388 11.1901 16.0635 11.375 15.9395C11.5601 15.8159 11.7775 15.75 12 15.75C12.2983 15.75 12.5846 15.8687 12.7955 16.0796C13.0065 16.2905 13.125 16.5767 13.125 16.875Z" fill="#D6814F" fill-opacity="1.000000" fill-rule="nonzero"/>
</svg>
