<svg width="24.000000" height="24.000000" viewBox="0 0 24 24" fill="none" xmlns="http://www.w3.org/2000/svg" xmlns:xlink="http://www.w3.org/1999/xlink">
	<desc>
			Created with Pixso.
	</desc>
	<defs/>
	<rect id="bi:envelope" width="24.000000" height="24.000000" fill="#FFFFFF" fill-opacity="0"/>
	<path id="Vector" d="M0 6C0 5.20459 0.31604 4.44141 0.878662 3.87891C1.44128 3.31592 2.20435 3 3 3L21 3C21.7957 3 22.5587 3.31592 23.1213 3.87891C23.684 4.44141 24 5.20459 24 6L24 18C24 18.7954 23.684 19.5586 23.1213 20.1211C22.5587 20.6841 21.7957 21 21 21L3 21C2.20435 21 1.44128 20.6841 0.878662 20.1211C0.31604 19.5586 0 18.7954 0 18L0 6ZM3 4.5C2.60217 4.5 2.2207 4.6582 1.93933 4.93945C1.65808 5.2207 1.5 5.60205 1.5 6L1.5 6.32568L12 12.6255L22.5 6.32568L22.5 6C22.5 5.60205 22.3419 5.2207 22.0607 4.93945C21.7793 4.6582 21.3978 4.5 21 4.5L3 4.5ZM22.5 8.07471L15.438 12.312L22.5 16.6577L22.5 8.07471ZM22.449 18.3887L13.989 13.1821L12 14.3745L10.011 13.1821L1.55103 18.3872C1.63623 18.7061 1.82446 18.9883 2.08643 19.1895C2.34851 19.3906 2.66968 19.5 3 19.5L21 19.5C21.3302 19.5 21.6511 19.3911 21.9131 19.1899C22.1752 18.9893 22.3635 18.7075 22.449 18.3887ZM1.5 16.6577L8.56201 12.312L1.5 8.07471L1.5 16.6577Z" fill="#D6814F" fill-opacity="1.000000" fill-rule="nonzero"/>
</svg>
