<svg width="24.000000" height="24.000000" viewBox="0 0 24 24" fill="none" xmlns="http://www.w3.org/2000/svg" xmlns:xlink="http://www.w3.org/1999/xlink">
	<desc>
			Created with Pixso.
	</desc>
	<defs/>
	<rect id="tdesign:call" width="24.000000" height="24.000000" fill="#FFFFFF" fill-opacity="0"/>
	<path id="Vector" d="M1 2L9.58008 2L11.067 8.68994L9.20703 10.5498C10.3002 12.2524 11.7473 13.6992 13.4501 14.792L15.3101 12.9331L22 14.4199L22 23L21 23C17.1504 23.0059 13.3817 21.896 10.15 19.8042C7.76721 18.2617 5.73804 16.2329 4.19604 13.8501C2.10413 10.6182 0.994019 6.84961 1 3L1 2ZM3.02698 4C3.19519 7.12012 4.17749 10.1416 5.87598 12.7642C7.2644 14.9087 9.09106 16.7358 11.2361 18.124C13.8585 19.8228 16.88 20.8047 20 20.9731L20 16.0239L15.947 15.124L13.7731 17.2988L13.11 16.9219C10.5928 15.4912 8.50867 13.4072 7.078 10.8901L6.70105 10.2271L8.87598 8.05322L7.97607 4L3.02698 4Z" fill="#D6814F" fill-opacity="1.000000" fill-rule="nonzero"/>
</svg>
