<svg width="58.239990" height="24.000000" viewBox="0 0 58.24 24" fill="none" xmlns="http://www.w3.org/2000/svg" xmlns:xlink="http://www.w3.org/1999/xlink">
	<desc>
			Created with Pixso.
	</desc>
	<defs/>
	<rect id="Main button/logos:apple-pay" width="58.240002" height="24.000000" fill="#FFFFFF" fill-opacity="0"/>
	<path id="Vector" d="M10.6423 3.08301C9.9599 3.89062 8.86774 4.52734 7.7757 4.43652C7.63916 3.34473 8.17377 2.18408 8.7995 1.46729C9.48193 0.637207 10.6765 0.0454102 11.6434 0C11.7571 1.1377 11.3135 2.25244 10.6423 3.08301ZM11.6321 4.65283C10.0509 4.56152 8.6972 5.55127 7.94641 5.55127C7.18433 5.55127 6.03528 4.69824 4.784 4.72119C3.15729 4.74365 1.64429 5.66504 0.813843 7.13232C-0.892517 10.0674 0.370239 14.4131 2.01965 16.8018C2.82733 17.9849 3.79431 19.2817 5.06836 19.2363C6.27423 19.1909 6.75195 18.4517 8.20813 18.4517C9.67554 18.4517 10.0965 19.2363 11.3705 19.2134C12.6901 19.1909 13.5206 18.0308 14.3282 16.8477C15.2496 15.5054 15.6251 14.1968 15.6478 14.1284C15.6251 14.106 13.0997 13.1392 13.077 10.2266C13.0542 7.79248 15.0677 6.63184 15.1587 6.56396C14.021 4.88037 12.2465 4.69824 11.6321 4.65283ZM20.767 1.35352L20.767 19.0884L23.5198 19.0884L23.5198 13.0254L27.3307 13.0254C30.8116 13.0254 33.2574 10.6362 33.2574 7.17822C33.2574 3.72021 30.8571 1.354 27.4216 1.354L20.767 1.35352ZM23.5198 3.67432L26.6936 3.67432C29.0825 3.67432 30.4476 4.94824 30.4476 7.18945C30.4476 9.43018 29.0825 10.7158 26.6822 10.7158L23.5198 10.7158L23.5198 3.67432ZM38.2853 19.2251C40.0145 19.2251 41.6184 18.3491 42.3465 16.9609L42.4033 16.9609L42.4033 19.0884L44.9515 19.0884L44.9515 10.2607C44.9515 7.70117 42.9039 6.05176 39.7527 6.05176C36.8292 6.05176 34.6678 7.72412 34.5882 10.022L37.0682 10.022C37.2729 8.93018 38.2852 8.21338 39.6732 8.21338C41.3568 8.21338 42.301 8.99805 42.301 10.4429L42.301 11.4214L38.8655 11.626C35.6689 11.8193 33.9399 13.1274 33.9399 15.4028C33.9399 17.7007 35.7258 19.2251 38.2853 19.2251ZM39.0247 17.1206C37.5574 17.1206 36.6245 16.415 36.6245 15.3345C36.6245 14.2197 37.5231 13.5713 39.2409 13.4688L42.301 13.2754L42.301 14.2764C42.301 15.9375 40.8904 17.1206 39.0248 17.1206L39.0247 17.1206ZM48.353 23.9116C51.0377 23.9116 52.3004 22.8882 53.4037 19.7822L58.2383 6.22266L55.4399 6.22266L52.1979 16.6992L52.141 16.6992L48.8989 6.22266L46.0209 6.22266L50.6848 19.1338L50.4346 19.9189C50.0137 21.25 49.3312 21.7617 48.114 21.7617C47.8979 21.7617 47.477 21.7388 47.3063 21.7163L47.3063 23.8433C47.4655 23.8892 48.148 23.9116 48.3528 23.9116L48.353 23.9116Z" fill="#FFFFFF" fill-opacity="1.000000" fill-rule="nonzero"/>
</svg>
