<svg width="60.239990" height="24.000000" viewBox="0 0 60.24 24" fill="none" xmlns="http://www.w3.org/2000/svg" xmlns:xlink="http://www.w3.org/1999/xlink">
	<desc>
			Created with Pixso.
	</desc>
	<defs/>
	<rect id="Main button/logos:google-pay" width="60.240002" height="24.000000" fill="#FFFFFF" fill-opacity="0"/>
	<path id="Vector" d="M42.6997 6.47754C44.3556 6.47754 45.6352 6.9292 46.6138 7.83252C47.5923 8.73535 48.0438 9.93994 48.0438 11.4453L48.0438 18.6709L45.9363 18.6709L45.9363 17.0151L45.861 17.0151C44.9578 18.3701 43.6782 19.0479 42.1727 19.0479C40.8931 19.0479 39.764 18.6714 38.8608 17.9185C38.0328 17.166 37.5059 16.1123 37.5059 14.9829C37.5059 13.7788 37.9577 12.8003 38.8608 12.0474C39.764 11.2949 41.0437 10.9937 42.5491 10.9937C43.9039 10.9937 44.9578 11.2197 45.7857 11.7466L45.7857 11.2197C45.7857 10.5171 45.5234 9.81445 44.9988 9.35693L44.8824 9.2627C44.2803 8.73535 43.5276 8.43457 42.6997 8.43457C41.42 8.43457 40.4416 8.96143 39.764 10.0151L37.8071 8.81055C39.0114 7.22998 40.592 6.47754 42.6997 6.47754ZM32.0865 1.35889C33.4371 1.35889 34.7206 1.8291 35.7469 2.70557L35.9254 2.86426C36.9791 3.76758 37.5059 5.12256 37.5059 6.55273C37.5059 7.98242 36.9791 9.26221 35.9254 10.2407C34.8715 11.2192 33.5919 11.7461 32.0865 11.7461L28.4736 11.6709L28.4736 18.6709L26.2153 18.6709L26.2153 1.35889L32.0865 1.35889ZM43.0006 12.8003C42.0975 12.8003 41.3447 13.0259 40.7426 13.4775C40.1404 13.854 39.8394 14.3809 39.8394 15.0581C39.8394 15.6602 40.1405 16.187 40.592 16.4883C41.119 16.8647 41.7211 17.0903 42.3233 17.0903C43.1663 17.0903 44.0093 16.7627 44.6688 16.168L44.8072 16.0366C45.5599 15.3594 45.9363 14.5312 45.9363 13.6279C45.2589 13.1011 44.2803 12.7998 43.0007 12.7998L43.0006 12.8003ZM32.2372 3.46631L28.4737 3.46631L28.4737 9.48828L32.2372 9.48828C33.0651 9.48828 33.8931 9.18701 34.42 8.58496C35.6243 7.45605 35.6243 5.57422 34.4954 4.44531L34.42 4.36963C33.8178 3.76758 33.0651 3.3916 32.2371 3.4668L32.2372 3.46631ZM60.2377 6.85352L52.7859 23.9399L50.5278 23.9399L53.3127 17.9937L48.4202 6.9292L50.8289 6.9292L54.3665 15.4346L54.4418 15.4346L57.9043 6.9292L60.2377 6.9292L60.2377 6.85352Z" fill="#FFFFFF" fill-opacity="1.000000" fill-rule="nonzero"/>
	<path id="Vector" d="M19.5163 10.1655C19.5163 9.48828 19.441 8.81055 19.3657 8.1333L9.95709 8.1333L9.95709 11.9722L15.3012 11.9722C15.0754 13.1763 14.398 14.3052 13.3442 14.9829L13.3442 17.4668L16.5809 17.4668C18.4626 15.7358 19.5164 13.1763 19.5164 10.1655L19.5163 10.1655Z" fill="#4285F4" fill-opacity="1.000000" fill-rule="nonzero"/>
	<path id="Vector" d="M9.95697 19.8755C12.6666 19.8755 14.9247 18.9722 16.5807 17.4668L13.3441 14.9829C12.4409 15.585 11.3118 15.9609 9.95697 15.9609C7.39764 15.9609 5.13953 14.23 4.38684 11.8213L1.07507 11.8213L1.07507 14.3804C2.80627 17.7676 6.19342 19.8755 9.95697 19.8755Z" fill="#34A853" fill-opacity="1.000000" fill-rule="nonzero"/>
	<path id="Vector" d="M4.38684 11.8213C3.9353 10.6172 3.9353 9.26221 4.38684 7.98242L4.38684 5.42334L1.07507 5.42334C-0.355164 8.2085 -0.355164 11.5205 1.07507 14.3804L4.38684 11.8213Z" fill="#FBBC04" fill-opacity="1.000000" fill-rule="nonzero"/>
	<path id="Vector" d="M9.95697 3.91797C11.3871 3.91797 12.7419 4.44531 13.7958 5.42334L16.656 2.56348C14.8494 0.907227 12.4409 -0.0712891 10.0322 0.00390625C6.26862 0.00390625 2.80627 2.11182 1.15027 5.49902L4.46216 8.05811C5.13959 5.64941 7.39771 3.91797 9.95697 3.91797Z" fill="#EA4335" fill-opacity="1.000000" fill-rule="nonzero"/>
</svg>
