<svg width="24.000000" height="24.000000" viewBox="0 0 24 24" fill="none" xmlns="http://www.w3.org/2000/svg" xmlns:xlink="http://www.w3.org/1999/xlink">
	<desc>
			Created with Pixso.
	</desc>
	<defs/>
	<rect id="lets-icons:insta" width="24.000000" height="24.000000" fill="#FFFFFF" fill-opacity="0"/>
	<path id="Vector" d="M4.172 4.17188C5.34299 3 7.229 3 11 3L13 3C16.771 3 18.657 3 19.828 4.17188C21 5.34277 21 7.229 21 11L21 13C21 16.771 21 18.6572 19.828 19.8281C18.657 21 16.771 21 13 21L11 21C7.229 21 5.34299 21 4.172 19.8281C3 18.6572 3 16.771 3 13L3 11C3 7.229 3 5.34277 4.172 4.17188Z" stroke="#FFFFFF" stroke-opacity="1.000000" stroke-width="2.000000"/>
	<path id="Vector" d="M18 7.5C18 8.32861 17.3284 9 16.5 9C15.6716 9 15 8.32861 15 7.5C15 6.67139 15.6716 6 16.5 6C17.3284 6 18 6.67139 18 7.5Z" fill="#FFFFFF" fill-opacity="1.000000" fill-rule="evenodd"/>
	<path id="Vector" d="M12 15C10.3431 15 9 13.6567 9 12C9 10.3433 10.3431 9 12 9C13.6569 9 15 10.3433 15 12C15 13.6567 13.6569 15 12 15Z" stroke="#FFFFFF" stroke-opacity="1.000000" stroke-width="2.000000"/>
</svg>
