<svg width="33.000000" height="24.000000" viewBox="0 0 33 24" fill="none" xmlns="http://www.w3.org/2000/svg" xmlns:xlink="http://www.w3.org/1999/xlink">
	<desc>
			Created with Pixso.
	</desc>
	<defs/>
	<rect id="Main button/logos:mastercard" width="33.000000" height="24.000000" fill="#FFFFFF" fill-opacity="0"/>
	<path id="Vector" d="M5.99933 23.8804L5.99933 22.292C5.99933 21.6831 5.60309 21.2861 4.92383 21.2861C4.58429 21.2861 4.21643 21.3921 3.96167 21.7363C3.76367 21.4448 3.48077 21.2861 3.05627 21.2861C2.77319 21.2861 2.49036 21.3652 2.26385 21.6567L2.26385 21.3389L1.66962 21.3389L1.66962 23.8804L2.26385 23.8804L2.26385 22.4775C2.26385 22.0273 2.51862 21.8154 2.91486 21.8154C3.31085 21.8154 3.50909 22.0537 3.50909 22.4775L3.50909 23.8804L4.10339 23.8804L4.10339 22.4775C4.10339 22.0273 4.38617 21.8154 4.75409 21.8154C5.15033 21.8154 5.34833 22.0537 5.34833 22.4775L5.34833 23.8804L5.99933 23.8804ZM14.7999 21.3389L13.8378 21.3389L13.8378 20.5713L13.2436 20.5713L13.2436 21.3389L12.7059 21.3389L12.7059 21.8418L13.2435 21.8418L13.2435 23.0068C13.2435 23.5894 13.4982 23.9336 14.1774 23.9336C14.4321 23.9336 14.7149 23.854 14.9132 23.748L14.7433 23.2715C14.5735 23.3774 14.3755 23.4038 14.234 23.4038C13.951 23.4038 13.8378 23.2451 13.8378 22.9805L13.8378 21.8418L14.7999 21.8418L14.7999 21.3389ZM19.837 21.2861C19.4975 21.2861 19.2711 21.4448 19.1296 21.6567L19.1296 21.3389L18.5353 21.3389L18.5353 23.8804L19.1296 23.8804L19.1296 22.4507C19.1296 22.0273 19.3276 21.7891 19.6955 21.7891C19.8087 21.7891 19.9502 21.8154 20.0634 21.8418L20.2332 21.3125C20.12 21.2861 19.9502 21.2861 19.837 21.2861ZM12.2249 21.5508C11.9418 21.3657 11.5457 21.2861 11.1212 21.2861C10.4421 21.2861 9.98938 21.604 9.98938 22.1069C9.98938 22.5303 10.3289 22.7686 10.9232 22.8481L11.2061 22.8745C11.5174 22.9277 11.6872 23.0068 11.6872 23.1396C11.6872 23.3247 11.4608 23.457 11.0646 23.457C10.6685 23.457 10.3571 23.3247 10.159 23.1924L9.87604 23.6157C10.1874 23.8276 10.6118 23.9336 11.0362 23.9336C11.8286 23.9336 12.2814 23.5894 12.2814 23.1128C12.2814 22.6626 11.9135 22.4243 11.3475 22.3452L11.0646 22.3188C10.8098 22.292 10.6118 22.2393 10.6118 22.0806C10.6118 21.895 10.8098 21.7891 11.1212 21.7891C11.4608 21.7891 11.8004 21.9214 11.9702 22.001L12.2249 21.5508ZM28.0152 21.2861C27.6755 21.2861 27.4492 21.4448 27.3077 21.6567L27.3077 21.3389L26.7134 21.3389L26.7134 23.8809L27.3077 23.8809L27.3077 22.4512C27.3077 22.0273 27.5058 21.7891 27.8735 21.7891C27.9869 21.7891 28.1284 21.8159 28.2416 21.8423L28.4114 21.3125C28.2982 21.2861 28.1284 21.2861 28.0152 21.2861ZM20.4313 22.6099C20.4313 23.3774 20.9972 23.9336 21.8745 23.9336C22.2706 23.9336 22.5536 23.8545 22.8365 23.6426L22.5536 23.1924C22.3272 23.3511 22.1009 23.4307 21.8461 23.4307C21.3651 23.4307 21.0255 23.1128 21.0255 22.6099C21.0255 22.1333 21.3651 21.8154 21.8461 21.7891C22.1009 21.7891 22.3272 21.8687 22.5536 22.0273L22.8365 21.5771C22.5536 21.3657 22.2706 21.2861 21.8745 21.2861C20.9972 21.2861 20.4313 21.8423 20.4313 22.6099ZM25.9211 22.6099L25.9211 21.3389L25.3269 21.3389L25.3269 21.6567C25.1287 21.4185 24.8458 21.2861 24.4779 21.2861C23.7139 21.2861 23.1196 21.8423 23.1196 22.6099C23.1196 23.3774 23.7139 23.9336 24.4779 23.9336C24.874 23.9336 25.1571 23.8013 25.3269 23.563L25.3269 23.8809L25.9211 23.8809L25.9211 22.6099ZM23.7421 22.6099C23.7421 22.1597 24.0534 21.7891 24.5627 21.7891C25.0438 21.7891 25.3835 22.1333 25.3835 22.6099C25.3835 23.0601 25.0438 23.4307 24.5627 23.4307C24.0534 23.4038 23.7421 23.0601 23.7421 22.6099ZM16.6393 21.2861C15.847 21.2861 15.2809 21.8154 15.2809 22.6099C15.2809 23.4043 15.8469 23.9336 16.6676 23.9336C17.0637 23.9336 17.46 23.8276 17.7713 23.5894L17.4882 23.1924C17.2618 23.3511 16.9789 23.457 16.696 23.457C16.3281 23.457 15.9601 23.2983 15.8752 22.8481L17.8845 22.8481L17.8845 22.6362C17.9128 21.8154 17.4035 21.2861 16.6393 21.2861ZM16.6392 21.7627C17.007 21.7627 17.2618 21.9746 17.3183 22.3716L15.9034 22.3716C15.96 22.0273 16.2148 21.7627 16.6392 21.7627ZM31.3825 22.6099L31.3825 20.333L30.7883 20.333L30.7883 21.6567C30.5901 21.4185 30.3072 21.2861 29.9393 21.2861C29.1752 21.2861 28.581 21.8423 28.581 22.6099C28.581 23.3774 29.1752 23.9336 29.9393 23.9336C30.3355 23.9336 30.6185 23.8013 30.7883 23.563L30.7883 23.8809L31.3825 23.8809L31.3825 22.6099ZM29.2036 22.6099C29.2036 22.1597 29.5148 21.7891 30.0242 21.7891C30.5053 21.7891 30.8448 22.1333 30.8448 22.6099C30.8448 23.0601 30.5053 23.4307 30.0242 23.4307C29.5148 23.4038 29.2036 23.0601 29.2036 22.6099ZM9.33826 22.6099L9.33826 21.3389L8.74402 21.3389L8.74402 21.6567C8.54584 21.4185 8.26294 21.2861 7.89502 21.2861C7.13098 21.2861 6.53674 21.8423 6.53674 22.6099C6.53674 23.3774 7.13098 23.9336 7.89502 23.9336C8.29126 23.9336 8.57422 23.8013 8.74402 23.563L8.74402 23.8809L9.33826 23.8809L9.33826 22.6099ZM7.13098 22.6099C7.13098 22.1597 7.44232 21.7891 7.9516 21.7891C8.43268 21.7891 8.77234 22.1333 8.77234 22.6099C8.77234 23.0601 8.43268 23.4307 7.9516 23.4307C7.44232 23.4038 7.13098 23.0601 7.13098 22.6099Z" fill="#FFFFFF" fill-opacity="1.000000" fill-rule="evenodd"/>
	<path id="Vector" d="M12.0267 2.03857L20.9406 2.03857L20.9406 17.0234L12.0267 17.0234L12.0267 2.03857Z" fill="#FF5F00" fill-opacity="1.000000" fill-rule="nonzero"/>
	<path id="Vector" d="M12.5927 9.53125C12.5927 6.48633 14.1208 3.78613 16.4694 2.03857C14.7434 0.767578 12.5645 0 10.1874 0C4.55591 0 0 4.2627 0 9.53125C0 14.7998 4.55591 19.0625 10.1873 19.0625C12.5644 19.0625 14.7433 18.2944 16.4694 17.0234C14.1208 15.3027 12.5927 12.5757 12.5927 9.53125Z" fill="#EB001B" fill-opacity="1.000000" fill-rule="nonzero"/>
	<path id="Vector" d="M32.9673 9.53125C32.9673 14.7998 28.4113 19.0625 22.7799 19.0625C20.4029 19.0625 18.224 18.2944 16.4978 17.0234C18.8748 15.2764 20.3746 12.5757 20.3746 9.53125C20.3746 6.48633 18.8465 3.78613 16.4978 2.03857C18.2239 0.767578 20.4029 0 22.7799 0C28.4113 0 32.9673 4.28906 32.9673 9.53125Z" fill="#F79E1B" fill-opacity="1.000000" fill-rule="nonzero"/>
</svg>
