<svg width="24.000000" height="24.000000" viewBox="0 0 24 24" fill="none" xmlns="http://www.w3.org/2000/svg" xmlns:xlink="http://www.w3.org/1999/xlink">
	<desc>
			Created with Pixso.
	</desc>
	<defs/>
	<rect id="uiw:pinterest" width="24.000000" height="24.000000" fill="#FFFFFF" fill-opacity="0"/>
	<path id="Vector" d="M12.018 0C5.3808 0 0 5.36768 0 11.9878C0 17.0664 3.16559 21.4043 7.63678 23.1479C7.53119 22.2002 7.43762 20.7456 7.67761 19.71C7.89722 18.7739 9.08759 13.7534 9.08759 13.7534C9.08759 13.7534 8.7276 13.0332 8.7276 11.9722C8.7276 10.3091 9.6972 9.06104 10.9008 9.06104C11.9268 9.06104 12.4224 9.8291 12.4224 10.7485C12.4224 11.7778 11.7684 13.3164 11.4276 14.7407C11.142 15.9336 12.03 16.9058 13.2072 16.9058C15.3408 16.9058 16.9848 14.6616 16.9848 11.4194C16.9848 8.55859 14.9172 6.5498 11.964 6.5498C8.54639 6.5498 6.54242 9.11182 6.54242 11.749C6.54242 12.7812 6.93719 13.8926 7.4328 14.4902C7.53241 14.6099 7.54559 14.7158 7.51801 14.8354C7.42798 15.21 7.22522 16.0342 7.18323 16.1978C7.13037 16.4233 7.0116 16.4688 6.78119 16.3633C5.28241 15.6733 4.34277 13.4858 4.34277 11.7168C4.34277 7.94141 7.09802 4.46533 12.282 4.46533C16.4508 4.46533 19.692 7.43164 19.692 11.3882C19.692 15.5234 17.0784 18.8496 13.4436 18.8496C12.2268 18.8496 11.0844 18.2207 10.6788 17.4707L9.92877 20.3198C9.65881 21.3638 8.92078 22.6714 8.42639 23.4648C9.57941 23.8198 10.7791 24.0005 11.9856 24C18.6096 24 24 18.6362 24 12.0122C24 5.3916 18.6084 0.027832 11.9856 0.027832L12.018 0Z" fill="#FFFFFF" fill-opacity="1.000000" fill-rule="nonzero"/>
</svg>
