<svg width="24.000000" height="24.000000" viewBox="0 0 24 24" fill="none" xmlns="http://www.w3.org/2000/svg" xmlns:xlink="http://www.w3.org/1999/xlink">
	<desc>
			Created with Pixso.
	</desc>
	<defs/>
	<rect id="ic:round-tiktok" width="24.000000" height="24.000000" fill="#FFFFFF" fill-opacity="0"/>
	<path id="Vector" d="M16.6 5.81982C15.9164 5.03955 15.5397 4.0376 15.54 3L12.45 3L12.45 15.3999C12.4262 16.0708 12.1429 16.7065 11.6598 17.1729C11.1767 17.6392 10.5315 17.8999 9.86005 17.8999C8.44006 17.8999 7.26001 16.7402 7.26001 15.2998C7.26001 13.5801 8.92004 12.29 10.63 12.8198L10.63 9.66016C7.18005 9.2002 4.16003 11.8799 4.16003 15.2998C4.16003 18.6299 6.92004 21 9.85004 21C12.9901 21 15.54 18.4502 15.54 15.2998L15.54 9.00977C16.793 9.90967 18.2974 10.3926 19.84 10.3901L19.84 7.2998C19.84 7.2998 17.96 7.39014 16.6 5.81982Z" fill="#FFFFFF" fill-opacity="1.000000" fill-rule="nonzero"/>
</svg>
