<svg width="42.000000" height="24.000000" viewBox="0 0 42 24" fill="none" xmlns="http://www.w3.org/2000/svg" xmlns:xlink="http://www.w3.org/1999/xlink">
	<desc>
			Created with Pixso.
	</desc>
	<defs>
		<linearGradient id="paint_linear_10_1014_0" x1="1658.066528" y1="42.072632" x2="1978.574829" y2="-1181.999390" gradientUnits="userSpaceOnUse">
			<stop stop-color="#2E31B1"/>
			<stop offset="1.000000" stop-color="#254AA5"/>
		</linearGradient>
	</defs>
	<rect id="Main button/logos:visa" width="42.000000" height="24.000000" fill="#FFFFFF" fill-opacity="0"/>
	<path id="Vector" d="M21.6183 9.83643C21.5978 11.5078 23.0616 12.4409 24.1642 12.9951C25.2971 13.5645 25.6776 13.9292 25.6731 14.4385C25.6647 15.2168 24.7695 15.5605 23.9318 15.5742C22.4702 15.5977 21.6204 15.167 20.9449 14.8408L20.4184 17.3843C21.0962 17.7065 22.3513 17.9878 23.6528 18C26.7078 18 28.7065 16.4434 28.7173 14.0298C28.7293 10.9668 24.6128 10.7969 24.6409 9.42773C24.6506 9.0127 25.0344 8.56982 25.8753 8.45703C26.2916 8.40039 27.4406 8.35645 28.7433 8.97607L29.2547 6.51562C28.5541 6.25195 27.6537 6 26.5326 6C23.6571 6 21.6346 7.57764 21.6183 9.83643ZM34.1678 6.21191C33.61 6.21191 33.1399 6.54785 32.9301 7.06348L28.566 17.8193L31.6189 17.8193L32.2264 16.0864L35.9568 16.0864L36.3093 17.8193L39 17.8193L36.652 6.21191L34.1678 6.21191ZM34.5949 9.34766L35.476 13.7061L33.0631 13.7061L34.5949 9.34766ZM17.9169 6.21191L15.5106 17.8193L18.4197 17.8193L20.825 6.21191L17.9169 6.21191ZM13.6134 6.21191L10.5854 14.1123L9.3606 7.39502C9.21692 6.64502 8.64935 6.21191 8.01904 6.21191L3.06934 6.21191L3 6.54883C4.01617 6.77637 5.17072 7.14355 5.87018 7.53662C6.29822 7.77637 6.42029 7.98633 6.56091 8.55615L8.8808 17.8193L11.955 17.8193L16.6682 6.21191L13.6134 6.21191Z" fill="url(#paint_linear_10_1014_0)" fill-opacity="1.000000" fill-rule="nonzero"/>
</svg>
