<svg width="24.000000" height="24.000000" viewBox="0 0 24 24" fill="none" xmlns="http://www.w3.org/2000/svg" xmlns:xlink="http://www.w3.org/1999/xlink">
	<desc>
			Created with Pixso.
	</desc>
	<defs/>
	<rect id="bi:youtube" width="24.000000" height="24.000000" fill="#FFFFFF" fill-opacity="0"/>
	<path id="Vector" d="M12.0765 2.99854L12.21 2.99854C13.443 3.00293 19.6905 3.04785 21.375 3.50098C21.8842 3.63916 22.3483 3.90869 22.7207 4.28271C23.0932 4.65625 23.3611 5.12109 23.4975 5.63086C23.649 6.20117 23.7555 6.95557 23.8275 7.73389L23.8425 7.89014L23.8755 8.28027L23.8875 8.43604C23.985 9.80713 23.997 11.0908 23.9985 11.3716L23.9985 11.4839C23.997 11.7749 23.9835 13.146 23.8755 14.5742L23.8635 14.7314L23.85 14.8877C23.775 15.7456 23.664 16.5977 23.4975 17.2246C23.3615 17.7344 23.0938 18.1997 22.7212 18.5737C22.3487 18.9473 21.8845 19.2168 21.375 19.3545C19.635 19.8228 13.0215 19.8555 12.105 19.8569L11.892 19.8569C11.4285 19.8569 9.51151 19.8481 7.5015 19.7788L7.24649 19.77L7.116 19.7642L6.8595 19.7534L6.603 19.7432C4.93799 19.6694 3.35251 19.5513 2.62201 19.353C2.11273 19.2153 1.64859 18.9463 1.27609 18.5728C0.903564 18.1992 0.635773 17.7344 0.499512 17.2246C0.333008 16.5991 0.221985 15.7456 0.147003 14.8877L0.13501 14.73L0.122986 14.5742C0.0489807 13.5576 0.00793457 12.5391 0 11.52L0 11.3354C0.00299072 11.0132 0.0150146 9.89844 0.0960083 8.66846L0.106506 8.51416L0.110992 8.43604L0.122986 8.28027L0.156006 7.89014L0.17099 7.73389C0.243011 6.95557 0.349487 6.19971 0.501007 5.63086C0.637054 5.12109 0.904755 4.65576 1.27728 4.28223C1.64981 3.9082 2.11404 3.63867 2.6235 3.50098C3.354 3.30615 4.93951 3.18604 6.60449 3.11084L6.8595 3.10059L7.11749 3.09131L7.24649 3.08691L7.50299 3.07666C8.93057 3.03076 10.3587 3.00488 11.787 3L12.0765 2.99854ZM9.60001 7.81348L9.60001 15.0405L15.8355 11.4287L9.60001 7.81348Z" fill="#FFFFFF" fill-opacity="1.000000" fill-rule="nonzero"/>
</svg>
